<?xml version="1.0" encoding="UTF-8" standalone="no"?>
<!-- Created with Inkscape (http://www.inkscape.org/) -->

<svg
   width="173.72258mm"
   height="173.72258mm"
   viewBox="0 0 173.72258 173.72258"
   version="1.1"
   id="svg1"
   inkscape:version="1.3.2 (091e20e, 2023-11-25, custom)"
   sodipodi:docname="kilp_värvitud_hele.svg"
   inkscape:export-filename="kilp_värvitud_hele.svg"
   inkscape:export-xdpi="438.6304"
   inkscape:export-ydpi="438.6304"
   xmlns:inkscape="http://www.inkscape.org/namespaces/inkscape"
   xmlns:sodipodi="http://sodipodi.sourceforge.net/DTD/sodipodi-0.dtd"
   xmlns="http://www.w3.org/2000/svg"
   xmlns:svg="http://www.w3.org/2000/svg">
  <sodipodi:namedview
     id="namedview1"
     pagecolor="#ffffff"
     bordercolor="#000000"
     borderopacity="0.25"
     inkscape:showpageshadow="2"
     inkscape:pageopacity="0.0"
     inkscape:pagecheckerboard="0"
     inkscape:deskcolor="#d1d1d1"
     inkscape:document-units="mm"
     inkscape:zoom="0.34609638"
     inkscape:cx="444.96276"
     inkscape:cy="362.61575"
     inkscape:window-width="1920"
     inkscape:window-height="991"
     inkscape:window-x="-9"
     inkscape:window-y="-9"
     inkscape:window-maximized="1"
     inkscape:current-layer="layer1" />
  <defs
     id="defs1" />
  <g
     inkscape:label="Kiht 1"
     inkscape:groupmode="layer"
     id="layer1"
     transform="translate(-24.930146,-50.173874)">
    <circle
       style="fill:#af7f42;fill-opacity:1;stroke:#d6c7b0;stroke-width:5.88005;stroke-dasharray:none;stroke-opacity:1"
       id="path7"
       cx="111.79143"
       cy="137.03516"
       r="83.921257"
       inkscape:export-filename="kirves_värvidega_hele.svg"
       inkscape:export-xdpi="96"
       inkscape:export-ydpi="96" />
    <path
       id="path5"
       style="fill:#d4c7b0;fill-opacity:1;stroke-width:0.644286;stroke-dasharray:none"
       d="m 114.80179,76.404844 c -0.47882,-8.08e-4 -0.95746,9.26e-4 -1.43637,0.0079 -1.61262,-0.03054 -3.41707,0.497109 -4.38277,2.15004 -1.2566,1.920688 -1.66653,4.45998 -1.5191,6.836751 0.30394,1.585518 0.9745,2.417866 2.41666,2.531113 14.34512,-0.04621 0.017,-0.01734 14.33239,-0.0335 1.20687,-0.146204 2.08222,-1.602968 1.94135,-2.998034 -0.0471,-2.615384 -0.74684,-5.399367 -2.50006,-7.12642 -1.24855,-1.268242 -2.97584,-1.375144 -4.5433,-1.338315 -1.43627,8.18e-4 -2.87235,-0.02769 -4.3088,-0.03005 z m -42.723907,3.432174 c -1.601786,0.01734 -2.786664,1.403174 -3.311774,2.800161 -2.887545,6.134321 -4.446669,12.83943 -4.998017,19.579591 -0.460319,6.92763 0.08562,13.96941 2.107112,20.63208 1.677109,5.691 4.272335,11.13776 7.813194,15.9059 1.176,1.38287 3.537657,1.7599 4.906928,0.45507 0.746639,-0.71429 1.026032,-1.75302 1.475819,-2.65502 0.930224,-2.20058 1.718087,-4.46902 2.881486,-6.56418 2.302353,-4.46884 5.467912,-8.71344 9.635197,-11.594 3.143578,-2.08307 6.937333,-3.16787 10.729562,-2.93348 1.73698,0.10155 3.43086,0.68741 4.86506,1.66845 1.66565,0.82632 3.55905,0.31485 5.33164,0.45856 4.31801,0.0102 8.63593,0.0214 12.95393,0.031 1.25812,-1.25625 2.51476,-2.51361 3.77068,-3.77206 -0.0101,-7.6155 -0.11551,-15.230696 -0.26766,-22.84458 -10.89058,-0.687464 -21.86366,0.761309 -32.704167,-0.486468 -7.398966,-0.83556 -14.614248,-3.389019 -20.608699,-7.885444 -1.243965,-0.928481 -2.277948,-2.252588 -3.802075,-2.732474 -0.256121,-0.05153 -0.517139,-0.07468 -0.778216,-0.06316 z m 43.420817,1.635639 c 1.8284,0.06128 3.70012,-0.09074 5.48867,0.187399 0.40683,0.284734 0.60474,0.831175 0.74297,1.341457 -3.25084,-0.04641 -6.50259,-0.06385 -9.7521,-0.19263 0.0791,-0.541052 0.31741,-1.199874 0.86232,-1.1928 0.88089,-0.127642 1.77378,-0.04572 2.65814,-0.143426 z m -42.423447,5.298141 c 0.109031,0.08749 0.217952,0.174935 0.326982,0.262427 5.288988,4.059585 11.573089,6.689778 18.044787,8.174385 4.421623,0.989469 8.964918,1.269976 13.486118,1.272006 6.59311,0.106369 13.18708,0.01232 19.78058,0.0199 0.0945,5.048014 0.15532,10.096594 0.16472,15.145504 -0.2498,0.26129 -0.48876,0.69975 -0.91676,0.55766 -4.45007,-0.009 -8.90028,-0.0174 -13.35037,-0.0262 -3.49206,-2.19384 -7.84806,-2.54603 -11.837562,-1.85305 -4.945285,0.79382 -9.550277,3.29007 -13.060032,6.84304 -4.33284,4.2122 -7.416454,9.54523 -9.672184,15.11235 -2.768377,-4.55123 -4.664434,-9.61442 -5.747612,-14.83945 -1.121318,-5.26609 -1.345624,-10.67106 -0.758669,-15.9984 0.523978,-5.009644 1.694855,-9.993474 3.540002,-14.670194 z m 62.888027,5.037783 c -1.9664,0.08641 -3.37575,2.231955 -2.98095,4.095232 0.0476,5.166177 -0.12971,10.347877 0.33642,15.499017 0.3929,1.87747 2.61084,3.29413 4.43825,2.48504 3.31596,-1.28235 6.43286,-2.98846 9.74268,-4.25959 2.34066,-0.98113 4.80703,-1.79948 7.04719,-3.03328 1.71788,-1.1973 2.48172,-3.80263 1.26016,-5.60313 -1.13749,-1.948942 -3.32819,-2.82206 -5.21195,-3.863857 -4.4244,-2.242193 -9.09593,-3.978162 -13.87348,-5.295687 -0.25275,-0.02187 -0.5047,-0.03074 -0.75832,-0.02365 z m 2.85531,6.629134 c 0.46866,0.164865 0.93734,0.329632 1.40601,0.494498 3.12017,1.118337 6.2158,2.348177 9.10615,3.983187 -3.53657,1.32755 -6.98851,2.86537 -10.42108,4.43968 -0.0776,-2.97187 -0.0771,-5.94474 -0.091,-8.917365 z m -30.1256,21.798705 c -4.2e-4,0.11959 -6.7e-4,0.23915 -0.002,0.35875 -0.0285,6.41521 -0.0681,12.83053 0.004,19.24559 0.0564,9.93269 0.14927,19.86552 0.1825,29.79825 -0.0365,3.39915 0.0193,6.80665 -0.24777,10.19703 -0.35901,3.56074 -1.36116,7.08196 -3.15646,10.15832 -1.441,3.15901 -0.46934,7.19684 2.09662,9.42721 3.06465,2.83985 7.56241,3.80355 11.51792,2.74677 2.68106,-0.72309 5.20332,-2.50211 6.45987,-5.10201 0.6427,-1.32846 0.48655,-2.85267 0.60546,-4.28749 0.25354,-8.86712 0.30214,-17.73931 0.36539,-26.60969 0.0336,-9.84962 0.12909,-19.70012 0.0133,-29.54943 -0.15833,-5.41476 -0.19688,-10.83177 -0.23173,-16.24861 -5.86936,-0.0448 -11.73885,-0.0898 -17.6082,-0.13469 z m 8.6633,5.82474 c 1.51545,0.0105 3.03101,0.0209 4.54645,0.0314 0.024,11.47661 0.18329,22.95314 0.14064,34.42983 -0.0576,9.1119 -0.25178,18.22236 -0.48368,27.33099 -0.0837,2.47096 -0.20075,4.94062 -0.33014,7.40943 -1.11305,1.78075 -3.29832,2.38322 -5.24264,2.39328 -2.31573,0.0214 -4.78943,-0.94559 -6.10775,-2.99071 -0.58418,-1.13807 -0.32082,-2.56327 0.41805,-3.55536 1.63179,-3.04409 2.44781,-6.48202 2.92338,-9.9039 0.60522,-4.85069 0.4093,-9.75484 0.43726,-14.63286 -0.0547,-8.73911 -0.1539,-17.47775 -0.25754,-26.21637 -0.0448,-2.02838 -0.0145,-4.06765 -0.28303,-6.08053 -0.11191,-2.68739 -0.0891,-5.45856 -0.12074,-8.17857 1.4533,-0.0122 2.90645,-0.0244 4.35974,-0.0367 z"
       inkscape:export-filename="path5.png"
       inkscape:export-xdpi="96"
       inkscape:export-ydpi="96" />
  </g>
</svg>