<?xml version="1.0" encoding="UTF-8" standalone="no"?>
<!-- Created with Inkscape (http://www.inkscape.org/) -->

<svg
   width="173.72256mm"
   height="173.72256mm"
   viewBox="0 0 173.72256 173.72256"
   version="1.1"
   id="svg1"
   inkscape:version="1.3.2 (091e20e, 2023-11-25, custom)"
   sodipodi:docname="kilp_värvitud_hele.svg"
   inkscape:export-filename="kilp_värvitud_hele.svg"
   inkscape:export-xdpi="438.6304"
   inkscape:export-ydpi="438.6304"
   xmlns:inkscape="http://www.inkscape.org/namespaces/inkscape"
   xmlns:sodipodi="http://sodipodi.sourceforge.net/DTD/sodipodi-0.dtd"
   xmlns="http://www.w3.org/2000/svg"
   xmlns:svg="http://www.w3.org/2000/svg">
  <sodipodi:namedview
     id="namedview1"
     pagecolor="#ffffff"
     bordercolor="#000000"
     borderopacity="0.25"
     inkscape:showpageshadow="2"
     inkscape:pageopacity="0.0"
     inkscape:pagecheckerboard="0"
     inkscape:deskcolor="#d1d1d1"
     inkscape:document-units="mm"
     inkscape:zoom="0.34609638"
     inkscape:cx="444.96276"
     inkscape:cy="362.61575"
     inkscape:window-width="1920"
     inkscape:window-height="991"
     inkscape:window-x="-9"
     inkscape:window-y="-9"
     inkscape:window-maximized="1"
     inkscape:current-layer="layer1" />
  <defs
     id="defs1" />
  <g
     inkscape:label="Kiht 1"
     inkscape:groupmode="layer"
     id="layer1"
     transform="translate(-24.930146,-50.173876)">
    <circle
       style="fill:#d6c7b0;fill-opacity:1;stroke:#af7f42;stroke-width:7;stroke-dasharray:none;stroke-opacity:1"
       id="path2"
       cx="111.79143"
       cy="137.03516"
       r="83.361282"
       inkscape:export-filename="kilp_värvitud_hele.svg"
       inkscape:export-xdpi="300"
       inkscape:export-ydpi="300" />
  </g>
  <path
     id="path1"
     style="fill:#af7f42;fill-opacity:1;stroke:none;stroke-width:0.276104"
     d="m 87.923024,18.215434 c -1.05548,-0.01686 -2.11154,-0.0092 -3.16673,0.02274 -13.412137,0.392242 -26.67022,4.83655 -37.605973,12.616284 -11.742604,8.292169 -20.752147,20.374026 -25.324036,34.004636 -4.552039,13.3512 -4.815675,28.11382 -0.75861,41.621746 4.215218,14.25237 13.224641,27.0206 25.237219,35.77198 11.506607,8.46232 25.711687,13.16168 39.99394,13.25759 16.999806,0.21943 33.963066,-6.24232 46.549606,-17.66301 11.51636,-10.35 19.3548,-24.70324 21.7873,-39.998066 2.59857,-15.85271 -0.61378,-32.57639 -8.92555,-46.32637 C 137.59548,37.919942 124.60594,27.316524 109.64676,22.107702 102.6796,19.644058 95.311384,18.333444 87.923024,18.215434 Z m -1.06505,4.186824 c 7.57015,0.0481 15.115426,1.34292 22.244116,3.978569 12.89143,4.72084 24.17716,13.684584 31.66887,25.191747 6.46335,9.8488 10.13721,21.49945 10.48773,33.24965 0.35912,10.00104 -1.72286,20.082396 -5.95261,29.186846 -5.68723,12.35062 -15.49472,22.85036 -27.52648,29.40285 -7.84288,4.29519 -16.67753,6.93057 -25.527126,7.67757 -11.54943,0.93478 -23.226211,-1.21655 -33.65634,-6.32106 -12.698351,-6.16198 -23.241503,-16.63227 -29.47417,-29.29795 -3.666676,-7.36806 -5.910327,-15.541816 -6.520016,-23.754626 -0.702356,-9.16792 0.599048,-18.42587 3.746025,-27.01954 1.977739,-5.39804 4.787671,-10.75108 8.161776,-15.412493 7.772446,-10.885359 18.986383,-19.173274 31.678686,-23.460066 6.656233,-2.267746 13.667409,-3.37548 20.669539,-3.421497 z m -3.0117,7.154602 c -11.124337,0.327624 -22.164098,4.026125 -31.224969,10.498067 -10.443178,7.387805 -18.279146,18.451917 -21.74596,30.783647 -3.547634,12.35336 -2.724639,25.9395 2.359546,37.814226 1.273046,3.00517 2.802427,5.85 4.571814,8.60878 2.641519,4.07465 5.902599,7.9713 9.565308,11.27942 5.869045,5.31988 12.935857,9.44448 20.453532,11.88919 4.916791,1.62761 10.224439,2.59591 15.431609,2.80293 12.62463,0.56879 25.363836,-3.2902 35.625736,-10.71149 6.3001,-4.51931 11.65423,-10.42039 15.58664,-17.05787 4.05388,-6.83097 6.67687,-14.45967 7.59747,-22.355226 1.16576,-9.9254 -0.32845,-20.15431 -4.32687,-29.36255 C 133.85746,54.755654 127.49639,46.705 119.58155,40.82904 113.88156,36.56165 107.39969,33.40484 100.52018,31.535551 95.165824,30.082546 89.459384,29.38578 83.846274,29.55686 Z m 1.73219,1.722376 c 0.38868,10e-4 0.77623,0.03775 1.16479,0.04703 l -0.0243,41.693068 a 11.59938,11.59938 0 0 0 -11.3931,11.58482 11.59938,11.59938 0 0 0 11.38018,11.58379 l -0.0264,45.292836 c -2.28774,0.0464 -4.57814,-0.0185 -6.85539,-0.26613 -9.089665,-0.94385 -17.914057,-4.22163 -25.447541,-9.38547 -0.0014,-0.0958 -0.01407,-0.20336 -0.05323,-0.33693 l 0.06098,-88.31296 0.0016,-2.197799 c 3.337693,-2.298202 6.923896,-4.235083 10.69237,-5.735051 6.502811,-2.600809 13.497941,-3.936078 20.500041,-3.967199 z m 2.22364,0.08992 c 10.33231,0.445472 20.539956,3.754085 29.043696,9.660392 l -0.0625,90.804782 c -1.71849,1.18124 -3.49772,2.27468 -5.34541,3.24683 -7.35216,3.90514 -15.597496,6.09652 -23.913776,6.39445 0.23532,-0.10958 0.35085,-0.36192 0.21497,-0.91571 l 0.0258,-44.416406 a 11.59938,11.59938 0 0 0 10.75955,-11.53935 11.59938,11.59938 0 0 0 -10.74611,-11.56415 l 0.0222,-37.991476 z M 53.326688,41.735448 53.265198,131.0442 c -1.965522,-1.42071 -3.840653,-2.96651 -5.597074,-4.64261 -8.605922,-8.12193 -14.462715,-19.08803 -16.422771,-30.758326 -2.083861,-12.15844 0.06749,-24.99466 6.038908,-35.79265 3.905859,-7.14011 9.454468,-13.34743 16.042432,-18.115166 z m 64.577452,0.05426 c 9.21485,6.668638 16.30187,16.238236 19.89904,27.036586 4.0167,11.85495 3.83194,25.08614 -0.57051,36.808086 -3.75162,10.16348 -10.61856,19.12802 -19.39003,25.46977 l 0.06,-86.932675 z m -49.43109,5.611027 a 4.0135136,4.0135136 0 0 0 -4.013191,4.013709 4.0135136,4.0135136 0 0 0 4.013191,4.01319 4.0135136,4.0135136 0 0 0 4.013709,-4.01319 4.0135136,4.0135136 0 0 0 -4.013709,-4.013709 z m 34.33433,0.270268 a 4.0135136,4.0135136 0 0 0 -4.013706,4.013701 4.0135136,4.0135136 0 0 0 4.013706,4.0132 4.0135136,4.0135136 0 0 0 4.01319,-4.0132 4.0135136,4.0135136 0 0 0 -4.01319,-4.013701 z m 21.66431,32.963881 a 4.0135136,4.0135136 0 0 0 -4.01371,4.01319 4.0135136,4.0135136 0 0 0 4.01371,4.01371 4.0135136,4.0135136 0 0 0 4.01371,-4.01371 4.0135136,4.0135136 0 0 0 -4.01371,-4.01319 z m -77.130683,0.96583 a 4.0135136,4.0135136 0 0 0 -4.013709,4.01319 4.0135136,4.0135136 0 0 0 4.013709,4.01371 4.0135136,4.0135136 0 0 0 4.013192,-4.01371 4.0135136,4.0135136 0 0 0 -4.013192,-4.01319 z M 68.47305,113.96307 a 4.0135136,4.0135136 0 0 0 -4.013191,4.01371 4.0135136,4.0135136 0 0 0 4.013191,4.01319 4.0135136,4.0135136 0 0 0 4.013709,-4.01319 4.0135136,4.0135136 0 0 0 -4.013709,-4.01371 z m 34.33433,0.51315 a 4.0135136,4.0135136 0 0 0 -4.013706,4.01371 4.0135136,4.0135136 0 0 0 4.013706,4.01371 4.0135136,4.0135136 0 0 0 4.01319,-4.01371 4.0135136,4.0135136 0 0 0 -4.01319,-4.01371 z" />
</svg>