<?xml version="1.0" encoding="UTF-8" standalone="no"?>
<!-- Created with Inkscape (http://www.inkscape.org/) -->

<svg
   width="173.72258mm"
   height="173.72258mm"
   viewBox="0 0 173.72258 173.72258"
   version="1.1"
   id="svg1"
   inkscape:version="1.3.2 (091e20e, 2023-11-25, custom)"
   sodipodi:docname="kilp_värvitud_hele2.svg"
   inkscape:export-filename="kilp_värvitud_hele.svg"
   inkscape:export-xdpi="438.6304"
   inkscape:export-ydpi="438.6304"
   xmlns:inkscape="http://www.inkscape.org/namespaces/inkscape"
   xmlns:sodipodi="http://sodipodi.sourceforge.net/DTD/sodipodi-0.dtd"
   xmlns="http://www.w3.org/2000/svg"
   xmlns:svg="http://www.w3.org/2000/svg">
  <sodipodi:namedview
     id="namedview1"
     pagecolor="#ffffff"
     bordercolor="#000000"
     borderopacity="0.25"
     inkscape:showpageshadow="2"
     inkscape:pageopacity="0.0"
     inkscape:pagecheckerboard="0"
     inkscape:deskcolor="#d1d1d1"
     inkscape:document-units="mm"
     inkscape:zoom="0.34609638"
     inkscape:cx="444.96276"
     inkscape:cy="362.61575"
     inkscape:window-width="1920"
     inkscape:window-height="991"
     inkscape:window-x="-9"
     inkscape:window-y="-9"
     inkscape:window-maximized="1"
     inkscape:current-layer="layer1" />
  <defs
     id="defs1" />
  <g
     inkscape:label="Kiht 1"
     inkscape:groupmode="layer"
     id="layer1"
     transform="translate(-24.930146,-50.173876)">
    <circle
       style="fill:#d4c7b0;fill-opacity:1;stroke:#af7f42;stroke-width:7.01331;stroke-dasharray:none;stroke-opacity:1"
       id="path2"
       cx="111.62595"
       cy="137.20064"
       r="83.520103"
       inkscape:export-filename="..\..\taflheim\erinevad_disainid\kroon_värvitud_tume.svg"
       inkscape:export-xdpi="300"
       inkscape:export-ydpi="300" />
    <path
       id="path2-5"
       style="fill:#d6c7b0;fill-opacity:1;stroke:#d6c7b0;stroke-width:7.01331;stroke-dasharray:none;stroke-opacity:1"
       d="M 107.75239,60.669043 C 85.373103,61.706916 63.147806,73.543702 49.837512,91.911888 38.93872,106.94555 33.723005,125.26415 35.300824,143.82891 c 2.099124,25.68116 18.054686,49.74961 41.071606,61.43157 20.316542,10.61543 45.44736,11.40659 66.47661,1.9333 14.97388,-6.47749 28.32657,-19.0737 35.92908,-33.02818 8.76221,-15.66341 11.48828,-35.10701 7.9123,-52.59455 C 181.4004,94.34457 159.8568,71.352235 133.30553,63.65071 124.95541,61.152849 116.60808,60.31684 107.75239,60.669043 Z" />
    <path
       id="path1"
       style="fill:#af7f42;fill-opacity:1;stroke-width:1.02406"
       d="m 111.81934,87.805467 c -4.57317,-0.04305 -8.94441,3.035915 -10.4762,7.339336 -1.584634,4.129889 -0.41588,9.124487 2.8454,12.115847 -5.432473,10.0003 -10.865811,20.00011 -16.298332,30.00038 -6.067565,-3.55024 -12.135086,-7.09949 -18.202695,-10.64973 0.788737,-4.4036 -1.374103,-9.1281 -5.210292,-11.42397 -3.868563,-2.45056 -9.227723,-2.14873 -12.789936,0.73195 -3.587914,2.73029 -5.184117,7.73096 -3.859866,12.03795 1.125136,3.96267 4.601204,7.1228 8.654155,7.86439 3.14746,10.36165 6.293497,20.72462 9.441731,31.08607 h 93.267035 c 2.92712,-11.18276 5.85205,-22.366 8.77878,-33.54884 4.67088,-0.57236 8.68917,-4.40494 9.50179,-9.0368 0.89831,-4.39909 -1.15393,-9.2027 -4.96558,-11.57967 -3.90869,-2.59594 -9.43812,-2.31662 -13.06357,0.66292 -3.58439,2.77409 -5.12768,7.82858 -3.73756,12.13811 -0.27725,0.41631 -1.03365,0.64259 -1.49723,0.98558 -6.11462,3.57748 -12.23046,7.15455 -18.34506,10.73204 -5.42909,-10.00125 -10.87548,-20.00512 -16.29386,-30.00482 3.33985,-3.05943 4.46892,-8.213828 2.73416,-12.393951 -1.64881,-4.214264 -5.95012,-7.130065 -10.48287,-7.056792 z m -0.79201,4.636291 c 1.76798,-0.145941 3.60268,0.2949 5.03013,1.370443 4.32563,3.338821 2.2237,10.265299 -2.21141,12.462879 6.74356,12.42762 13.48585,24.85429 20.22941,37.28191 9.12867,-5.3394 18.2579,-10.67816 27.38634,-16.01797 -1.29906,-2.02845 -1.96473,-4.53906 -1.47945,-6.9367 0.95181,-6.43646 11.63502,-6.56471 12.82554,-0.20018 1.53245,5.00071 -3.59794,9.30466 -8.33606,8.85215 -3.11546,10.97412 -5.92782,22.02897 -8.82768,33.06162 H 69.356062 c -2.88222,-9.50868 -5.774474,-19.01358 -8.660871,-28.52095 0.06803,-2.8774 -3.594586,-2.17847 -5.363811,-3.2281 -5.764659,-2.72951 -3.135707,-12.47673 3.034536,-12.57188 5.560166,-0.2174 8.278579,6.38623 6.39161,10.98124 8.315904,4.86002 16.632153,9.72079 24.948058,14.58082 5.601754,-10.27865 11.142206,-20.6022 16.734406,-30.87692 1.21597,-2.37223 4.25154,-5.66207 1.82205,-8.07129 -5.11179,-2.82944 -3.04616,-11.783874 2.76529,-12.167028 z M 65.807627,171.27926 v 7.48842 h 93.627463 v -7.48842 z" />
  </g>
</svg>