<?xml version="1.0" encoding="UTF-8" standalone="no"?>
<!-- Created with Inkscape (http://www.inkscape.org/) -->

<svg
   width="144.44775mm"
   height="143.58025mm"
   viewBox="0 0 144.44775 143.58025"
   version="1.1"
   id="svg1"
   xml:space="preserve"
   sodipodi:docname="logo_tume.svg"
   inkscape:export-filename="logo_tume.png"
   inkscape:export-xdpi="96"
   inkscape:export-ydpi="96"
   inkscape:version="1.3.2 (091e20e, 2023-11-25, custom)"
   xmlns:inkscape="http://www.inkscape.org/namespaces/inkscape"
   xmlns:sodipodi="http://sodipodi.sourceforge.net/DTD/sodipodi-0.dtd"
   xmlns="http://www.w3.org/2000/svg"
   xmlns:svg="http://www.w3.org/2000/svg"><sodipodi:namedview
     id="namedview1"
     pagecolor="#ffffff"
     bordercolor="#000000"
     borderopacity="0.25"
     inkscape:showpageshadow="2"
     inkscape:pageopacity="0.0"
     inkscape:pagecheckerboard="0"
     inkscape:deskcolor="#d1d1d1"
     inkscape:document-units="mm"
     inkscape:zoom="1.2931723"
     inkscape:cx="272.97213"
     inkscape:cy="271.0389"
     inkscape:window-width="1920"
     inkscape:window-height="991"
     inkscape:window-x="-9"
     inkscape:window-y="-9"
     inkscape:window-maximized="1"
     inkscape:current-layer="svg1" /><defs
     id="defs1" /><rect
     style="fill:#f0ede2;fill-opacity:1;stroke:#f0ede5;stroke-width:0.478758;stroke-opacity:1"
     id="rect38"
     width="101.22598"
     height="97.514328"
     x="51.216705"
     y="-49.376221"
     ry="0.57031864"
     transform="matrix(0.71473981,0.69939045,-0.71473981,0.69939045,0,0)"
     rx="0.69285411" /><path
     style="fill:#af7f42;fill-opacity:1;stroke:#af7f42;stroke-width:0.767001;stroke-opacity:1"
     d="m 81.243277,78.53565 c -4.43541,4.435405 -4.45085,4.453675 -4.52375,5.427025 l -0.0734,0.97674 4.78026,4.78026 c 4.2021,4.2021 4.85509,4.78 5.40035,4.7799 0.45771,-7e-5 1.16019,-0.47443 2.6799,-1.81023 2.06664,-1.81656 4.03785,-3.84921 6.3749,-6.57295 1.004,-1.1701 1.22083,-1.5732 1.086,-2.01851 -0.10746,-0.35498 -1.90754,-2.25565 -4.97101,-5.247985 -4.41182,-4.309427 -4.86355,-4.693966 -5.55237,-4.728006 -0.72208,-0.03569 -0.91516,0.128088 -5.20084,4.413756 z m 5.25712,-1.141166 3.5101,3.510106 3.51047,3.510465 -2.41826,2.5396 c -1.33004,1.39679 -2.77017,2.91936 -3.2006,3.3833 -0.43051,0.46389 -0.87228,0.82207 -0.98185,0.79622 -0.1096,-0.0259 -1.76393,-1.5022 -3.676,-3.28063 l -3.47649,-3.23312 1.16931,-1.4134 c 0.64319,-0.77726 2.15816,-2.403014 3.3665,-3.612782 z"
     id="path17"
     inkscape:export-filename="logo_hele.svg"
     inkscape:export-xdpi="96"
     inkscape:export-ydpi="96" /><path
     style="fill:#f0ede5;stroke:#f0ede5;stroke-width:0.767001"
     d="m 123.3359,64.699803 3.5101,3.510106 3.51047,3.510465 -2.41826,2.5396 c -1.33004,1.396791 -2.77017,2.919361 -3.2006,3.383301 -0.43051,0.46389 -0.87228,0.82207 -0.98185,0.79622 -0.1096,-0.0259 -1.76393,-1.5022 -3.676,-3.28063 l -3.47649,-3.233121 1.16931,-1.4134 c 0.64319,-0.77726 2.15816,-2.403014 3.3665,-3.612782 z"
     id="path37" /><path
     style="fill:#af7f42;fill-opacity:1;stroke:#af7f42;stroke-width:0.767001;stroke-opacity:1"
     d="m 118.07878,65.840969 c -4.43541,4.435405 -4.45085,4.453675 -4.52375,5.427025 l -0.0734,0.97674 4.78026,4.780261 c 4.2021,4.2021 4.85509,4.78 5.40035,4.7799 0.45771,-7e-5 1.16019,-0.47443 2.6799,-1.81023 2.06664,-1.81656 4.03785,-3.84921 6.3749,-6.572951 1.004,-1.1701 1.22083,-1.5732 1.086,-2.01851 -0.10746,-0.35498 -1.90754,-2.25565 -4.97101,-5.247985 -4.41182,-4.309427 -4.86355,-4.693966 -5.55237,-4.728006 -0.72208,-0.03569 -0.91516,0.128088 -5.20084,4.413756 z"
     id="path17-4" /><path
     style="fill:#af7f42;fill-opacity:1;stroke:#af7f42;stroke-width:0.767001;stroke-opacity:1"
     d="m 53.538247,78.540153 c -3.63192,3.715196 -5.11972,5.364602 -5.06419,5.614492 0.11128,0.50067 10.09299,10.43696 10.59865,10.55041 0.22946,0.0515 1.02315,-0.28943 1.76346,-0.75713 1.94318,-1.22758 7.92987,-7.58715 8.41314,-8.93714 0.33001,-0.92182 0.29682,-1.02315 -0.75237,-2.29878 -1.74036,-2.115972 -8.87088,-9.219813 -9.36649,-9.331416 -0.38169,-0.08598 -1.22298,0.69021 -5.5922,5.159557 z m -1.15579,5.693422 3.46114,-3.46115 3.46114,-3.461139 3.55469,3.554685 3.55468,3.554684 -1.93629,1.93629 c -1.06491,1.06491 -2.51434,2.62073 -3.22071,3.45749 l -1.28404,1.52156 -0.84665,-0.60694 c -0.46569,-0.3336 -2.17333,-1.93152 -3.79512,-3.55103 z"
     id="path16" /><path
     style="fill:#f0ede5;stroke:#f0ede5;stroke-width:0.767001"
     d="m 65.170987,122.26613 3.46114,-3.46115 3.46114,-3.46114 3.55469,3.55468 3.55468,3.55469 -1.93629,1.93629 c -1.06491,1.06491 -2.51434,2.62073 -3.22071,3.45749 l -1.28404,1.52156 -0.84665,-0.60694 c -0.46569,-0.3336 -2.17333,-1.93152 -3.79512,-3.55103 z"
     id="path34" /><path
     style="fill:#af7f42;fill-opacity:1;stroke:#af7f42;stroke-width:0.767001;stroke-opacity:1"
     d="m 65.515917,117.65385 c -3.63192,3.71519 -5.11972,5.3646 -5.06419,5.61449 0.11128,0.50067 10.09299,10.43696 10.59865,10.55041 0.22946,0.0515 1.02315,-0.28943 1.76346,-0.75713 1.94318,-1.22758 7.92987,-7.58715 8.41314,-8.93714 0.33001,-0.92182 0.29682,-1.02315 -0.75237,-2.29878 -1.74036,-2.11597 -8.87088,-9.21982 -9.36649,-9.33142 -0.38169,-0.086 -1.22298,0.69021 -5.5922,5.15956 z"
     id="path16-5" /><path
     style="fill:#af7f42;fill-opacity:1;stroke:#af7f42;stroke-width:0.767001;stroke-opacity:1"
     d="m 83.850747,46.789203 c -0.7651,0.726255 -1.89299,1.889311 -3.62995,3.722769 -2.40081,2.534192 -4.43608,4.842435 -4.52301,5.129589 -0.23124,0.763748 0.18644,1.499684 1.88768,3.325945 1.99685,2.143512 8.1232,7.704048 8.61632,7.82045 0.21239,0.05014 0.98569,-0.378783 1.71851,-0.953348 1.65739,-1.299476 7.97529,-7.848433 8.51546,-8.826787 0.54651,-0.989844 0.19074,-1.431334 -5.59549,-6.946032 l -4.81826,-4.592442 -0.71803,0.217418 c -0.28568,0.08654 -0.68812,0.376164 -1.45323,1.102438 z m 2.06785,2.504866 3.55397,3.555391 3.55327,3.556099 -3.27295,3.408155 -3.27259,3.407788 -2.77162,-2.602066 c -1.5245,-1.43116 -3.13361,-3.032634 -3.57589,-3.55906 l -0.80425,-0.957006 3.29487,-3.4045 z"
     id="path15" /><path
     style="fill:#f0ede5;stroke:#f0ede5;stroke-width:0.767001"
     d="m 71.997167,12.8675 3.55397,3.555391 3.55327,3.556099 -3.27295,3.408155 -3.27259,3.407788 -2.77162,-2.602066 c -1.5245,-1.43116 -3.13361,-3.032634 -3.57589,-3.55906 l -0.80425,-0.957006 3.29487,-3.4045 z"
     id="path36" /><path
     style="fill:#af7f42;fill-opacity:1;stroke:#af7f42;stroke-width:0.767001;stroke-opacity:1"
     d="m 69.929317,10.362634 c -0.7651,0.726255 -1.89299,1.889311 -3.62995,3.722769 -2.40081,2.534192 -4.43608,4.842435 -4.52301,5.129589 -0.23124,0.763748 0.18644,1.499684 1.88768,3.325945 1.99685,2.143512 8.1232,7.704048 8.61632,7.82045 0.21239,0.05014 0.98569,-0.378783 1.71851,-0.953348 1.65739,-1.299476 7.97529,-7.848433 8.51546,-8.826787 0.54651,-0.989844 0.19074,-1.431334 -5.59549,-6.946032 l -4.81826,-4.5924416 -0.71803,0.217418 c -0.28568,0.08654 -0.68812,0.376164 -1.45323,1.1024376 z"
     id="path15-2" /><path
     style="fill:#af7f42;fill-opacity:1;stroke:#af7f42;stroke-width:0.767001;stroke-opacity:1"
     d="m 70.316067,60.7534 c -0.7651,0.726255 -1.89298,1.889312 -3.62995,3.722769 -2.4008,2.534193 -4.43608,4.842435 -4.52301,5.129589 -0.23124,0.763748 0.18644,1.499684 1.88769,3.325945 1.99684,2.143509 8.12319,7.704048 8.61631,7.820452 0.2124,0.05014 0.9857,-0.378783 1.71851,-0.953349 1.65739,-1.299479 7.97529,-7.848433 8.51546,-8.826786 0.54652,-0.989843 0.19075,-1.431333 -5.59548,-6.94603 l -4.81827,-4.592446 -0.71803,0.217419 c -0.28568,0.08654 -0.68811,0.376163 -1.45323,1.102437 z"
     id="path15-3" /><path
     style="fill:#af7f42;fill-opacity:1;stroke:#af7f42;stroke-width:0.767001;stroke-opacity:1"
     d="m 52.928037,51.243308 c -4.45477,4.454764 -4.52049,4.532929 -4.46931,5.311201 0.0483,0.733671 0.38336,1.12995 4.70791,5.562969 3.13201,3.210503 4.849,4.831324 5.24506,4.951272 0.56992,0.172581 0.74178,0.02558 5.33787,-4.570518 2.61188,-2.611876 4.83086,-4.933258 4.93118,-5.158459 0.1003,-0.225221 -0.002,-0.594321 -0.22801,-0.819976 -0.22566,-0.225658 -0.40999,-0.590016 -0.40999,-0.809743 1.3e-4,-0.267776 -1.48459,-1.844843 -4.4978,-4.778436 -4.46439,-4.346448 -4.50346,-4.377593 -5.29658,-4.293905 -0.73721,0.0778 -1.14881,0.434066 -5.32033,4.605595 z m -1.46383,5.579777 3.48124,-3.481242 3.48087,-3.480868 3.43775,3.437755 3.43776,3.437754 -0.46772,0.70158 c -0.25723,0.385882 -1.69902,1.932872 -3.20389,3.437752 -2.70955,2.709545 -2.74035,2.732147 -3.16809,2.326188 -0.23789,-0.22516 -1.90948,-1.752794 -3.7151,-3.39427 z"
     id="path13" /><path
     style="fill:#f0ede5;stroke:#f0ede5;stroke-width:0.767001"
     d="m 13.196268,71.850898 3.48124,-3.481242 3.48087,-3.480868 3.43775,3.437755 3.43776,3.437754 -0.46772,0.70158 c -0.25723,0.385882 -1.69902,1.932872 -3.20389,3.437752 -2.70955,2.709545 -2.74035,2.732147 -3.16809,2.326188 -0.23789,-0.22516 -1.90948,-1.752794 -3.7151,-3.39427 z"
     id="path35" /><path
     style="fill:#af7f42;fill-opacity:1;stroke:#af7f42;stroke-width:0.767001;stroke-opacity:1"
     d="m 14.660098,66.541405 c -4.45477,4.454764 -4.52049,4.532929 -4.46931,5.311201 0.0483,0.733671 0.38336,1.12995 4.70791,5.562969 3.13201,3.210503 4.849,4.831324 5.24506,4.95127 0.56992,0.17258 0.74178,0.0256 5.33787,-4.570516 2.61188,-2.611876 4.83086,-4.933258 4.93118,-5.158459 0.1003,-0.225221 -0.002,-0.594321 -0.22801,-0.819976 -0.22566,-0.225658 -0.40999,-0.590016 -0.40999,-0.809743 1.3e-4,-0.267776 -1.48459,-1.844843 -4.4978,-4.778436 -4.46439,-4.346448 -4.50346,-4.377593 -5.29658,-4.293905 -0.73721,0.0778 -1.14881,0.434066 -5.32033,4.605595 z"
     id="path13-7" /><path
     style="fill:#2a2a2a;fill-opacity:1;stroke:#2a2a2a;stroke-width:0.767001;stroke-opacity:1"
     d="m 72.663917,0.38357441 c -0.94847,-0.0051 -2.0867,0.262498 -3.09232,0.74930799 -0.82409,0.398925 -10.72473,10.1027166 -35.232477,34.5317426 l -14.155725,14.11025 c 0.0047,0.0118 0.0087,0.0233 0.01344,0.0351 0.434107,1.07246 1.228315,1.91396 1.986959,2.76262 0.196723,0.19083 0.395301,0.38209 0.596863,0.57103 4.982816,-4.85478 22.136754,-21.926967 26.04182,-25.923486 11.10606,-11.36601 22.04402,-22.0383596 22.75262,-22.2017456 0.085,-0.01955 0.16964,-0.02759 0.26717,-0.0124 0.6827,0.106352 2.00265,1.356907 8.59637,7.8537836 4.47128,4.405627 9.25597,9.200993 10.63243,10.656197 1.37645,1.455201 3.40007,3.479284 4.49688,4.497917 1.0968,1.018647 3.00671,2.923293 4.24418,4.231783 1.237523,1.308476 10.202503,10.343191 19.922303,20.077321 9.71978,9.73414 17.84584,18.03285 18.0573,18.44177 0.52208,1.00958 0.2752,1.54033 -1.89291,4.07314 -2.32593,2.71716 -32.95983,33.271105 -39.007443,38.905625 -0.9397,0.8755 -4.27884,4.20893 -7.42073,7.40782 -3.14168,3.19911 -8.22228,8.22795 -11.29079,11.17451 -3.06828,2.94682 -5.67696,5.35297 -5.79706,5.34696 -0.48287,-0.0233 -2.32046,-1.0803 -3.35432,-1.92959 -1.90002,-1.5609 -9.08033,-8.49809 -14.94275,-14.43633 -3.10379,-3.14393 -6.794752,-6.84707 -8.202088,-8.22947 -1.407342,-1.38245 -3.094792,-3.10384 -3.749642,-3.82509 -0.654846,-0.72127 -2.614787,-2.68581 -4.355289,-4.36563 C 33.749124,100.99763 7.2922704,74.368915 6.1873544,73.090205 c -0.456706,-0.52853 -0.83044,-1.22377 -0.83044,-1.54512 0,-0.40419 1.730083,-2.35057 5.6125766,-6.31486 3.086858,-3.15193 6.450383,-6.61821 7.474479,-7.70238 0.452525,-0.47907 3.743576,-3.78013 4.336687,-4.38422 -0.256707,-0.24116 -0.352915,-0.31725 -0.596863,-0.57103 -0.714603,-0.79949 -1.475693,-1.821535 -2.040711,-2.726785 L 3.3874014,66.851305 0.39442644,71.208155 c 0.25639,2.82737 0.93634596,3.70602 8.48940396,10.969865 2.9352216,2.822835 8.0155526,7.915035 11.2897506,11.316095 3.274204,3.40108 11.597366,11.788335 18.495512,18.638145 6.898152,6.84986 16.492494,16.39107 21.320664,21.20233 5.90533,5.8846 9.16088,8.93682 9.9472,9.32604 1.32018,0.65347 1.78244,0.69471 3.28558,0.29352 1.08151,-0.28862 7.85934,-6.92038 43.919803,-42.973605 5.67642,-5.67527 13.86695,-13.75623 18.20096,-17.957035 4.33397,-4.200905 8.0662,-7.997475 8.29355,-8.437205 0.45653,-0.88285 0.32214,-3.06523 -0.24908,-4.04368 -0.17339,-0.29701 -6.93805,-7.0504 -15.03267,-15.00736 -8.09464,-7.9569 -15.352,-15.19925 -16.12719,-16.09407 -0.7752,-0.894794 -2.54632,-2.607777 -3.93568,-3.806482 -1.38935,-1.198712 -4.07377,-3.765547 -5.96552,-5.704044 C 90.788477,17.107355 86.168587,12.423857 83.949017,10.300282 c -1.37658,-1.3170526 -4.11502,-4.0241446 -6.08542,-6.0156536 -2.25884,-2.283042 -3.8575,-3.68807099 -4.32635,-3.80286899 -0.26212,-0.06418 -0.55717,-0.09649 -0.87333,-0.09819 z"
     id="path10-1"
     sodipodi:nodetypes="ssscccccccssscssssccccsssssssscccccsssssssccsccsssssss" /></svg>
