<?xml version="1.0" encoding="UTF-8" standalone="no"?>
<!-- Created with Inkscape (http://www.inkscape.org/) -->

<svg
   width="180"
   height="180"
   viewBox="0 0 180 180"
   version="1.1"
   id="svg1"
   xmlns:inkscape="http://www.inkscape.org/namespaces/inkscape"
   xmlns:sodipodi="http://sodipodi.sourceforge.net/DTD/sodipodi-0.dtd"
   xmlns="http://www.w3.org/2000/svg"
   xmlns:svg="http://www.w3.org/2000/svg">
  <sodipodi:namedview
     id="namedview1"
     pagecolor="#ffffff"
     bordercolor="#000000"
     borderopacity="0.25"
     inkscape:showpageshadow="2"
     inkscape:pageopacity="0.0"
     inkscape:pagecheckerboard="0"
     inkscape:deskcolor="#d1d1d1"
     inkscape:document-units="px" />
  <defs
     id="defs1" />
  <g
     inkscape:label="Kiht 1"
     inkscape:groupmode="layer"
     id="layer1">
    <path
       style="fill:#1e1a16;fill-opacity:1;stroke:none;stroke-width:12.934"
       d="M 10.429571,0 C 5.8313119,0 1.9266449,2.5637219 0,6.296275 V 173.7063 C 1.9266449,177.4337 5.8313119,180 10.429571,180 H 169.93007 c 4.31568,0 7.98916,-2.2683 10.06993,-5.62066 V 5.6258026 C 177.91923,2.2657343 174.24575,0 169.93007,0 Z"
       id="path6" />
    <path
       style="fill:none;fill-opacity:1;stroke:#af7f42;stroke-width:4.10652;stroke-dasharray:none;stroke-opacity:1"
       d="m 160.99044,172.93049 c 6.62765,0 11.97089,-5.28671 11.97089,-11.85784 V 18.637077 c 0,-6.573712 -5.34324,-11.8604252 -11.97089,-11.8604252 H 17.519624 c -6.653347,0 -12.0222643,5.2867132 -12.0222643,11.8604252 V 161.07265 c 0,6.57113 5.3689173,11.85784 12.0222643,11.85784 z m -23.06835,-7.33151 c -1.33582,-0.0258 -3.10832,-0.23121 -5.47168,-0.52663 -11.91951,-1.38718 -65.40317,-1.69287 -79.865851,-0.45983 -12.63879,1.07379 -13.255316,0.95562 -12.844299,-2.22206 1.207365,-8.33851 10.63508,-25.42913 18.264593,-32.90709 1.84958,-1.90095 3.67347,-3.45255 4.007421,-3.45255 0.333952,0 0.539461,3.14172 0.539461,6.9796 0,3.84301 0.35964,7.63209 0.744969,8.42586 1.130299,2.10904 6.06251,7.06951 7.115742,7.06951 1.515628,0 2.209219,-3.14687 2.209219,-10.45784 0,-11.84245 1.875267,-19.0969 6.42215,-25.08234 1.027544,-1.36921 2.183531,-2.15528 3.134009,-2.15528 1.952333,0 5.728557,2.98758 5.728557,4.44156 0,0.56258 -0.950478,2.69474 -2.18353,4.73954 -2.080777,3.61952 -2.183532,3.92265 -2.132154,11.32354 0,10.5015 2.9285,19.59012 6.653346,21.29071 2.41473,1.05579 3.956044,-0.58826 5.779934,-5.99316 1.207365,-3.58099 1.464252,-5.91094 1.464252,-12.65419 0,-8.1099 0,-8.34366 -2.20922,-12.52576 -3.956045,-7.72456 -6.216641,-9.79507 -13.537891,-12.51035 -8.734124,-3.20851 -9.607536,-4.37477 -6.884544,-9.008992 2.286285,-3.80705 4.058799,-4.970743 7.578135,-4.970743 2.645927,0 3.288142,0.362209 6.935922,3.801912 9.53047,8.980733 16.440699,19.453973 17.879269,27.204223 0.33395,1.96004 0.71928,6.86657 0.74496,10.90738 0,11.70887 1.00186,13.44285 5.11203,10.01599 3.28814,-2.73071 4.7524,-6.53004 5.36892,-13.84616 l 0.43671,-6.51977 3.49365,3.12632 c 6.34507,5.65919 13.79477,18.41357 17.5453,29.95033 1.5927,4.88596 1.92666,6.15497 -2.02938,6.01627 z M 15.644356,141.23591 c -1.515627,0 -1.541316,-1.41545 -0.308264,-10.96647 1.361497,-10.02111 1.335808,-57.709431 0,-74.987581 -1.233052,-14.7992 -1.233052,-13.568716 0,-14.575709 v 0 c 0.796347,-0.670472 1.798203,-0.549735 5.471671,0.642215 10.763524,3.49108 24.892252,11.868132 31.057516,18.405879 2.954189,3.134009 2.00371,3.69402 -5.574427,3.180249 l -6.524903,-0.444412 -4.110176,3.907235 c -6.370772,5.99315 -6.03682,6.306549 7.012987,6.784359 5.857002,0.231197 11.996576,0.765519 13.666335,1.220207 4.521192,1.251036 12.022263,5.371486 12.792922,7.051519 1.104609,2.381333 0,4.798631 -2.491794,6.031683 -2.337662,1.089197 -2.389041,1.076353 -6.78179,-1.150849 -3.904667,-1.972884 -5.189097,-2.288854 -10.532326,-2.522619 -3.416583,-0.179821 -7.783645,0.05138 -9.71029,0.485514 -5.137719,1.078921 -10.24975,3.699157 -11.200228,5.728558 -0.693592,1.513057 -0.56515,1.903523 1.130299,3.580989 2.620236,2.581704 7.835022,4.048523 16.003996,4.469815 10.198373,0.52148 13.666334,-0.660196 19.805908,-6.738117 4.03311,-4.009991 4.983588,-5.368918 6.576282,-9.725703 2.080777,-5.749108 3.28814,-7.169689 6.190951,-7.169689 1.541316,0 2.645927,0.703869 4.803768,2.979878 4.084487,4.374769 4.546882,5.738833 2.800058,8.107321 -2.440417,3.416584 -13.126875,13.093478 -18.059086,16.340518 -7.398314,4.88339 -10.069929,5.64635 -22.349079,6.3605 -10.24975,0.59854 -13.640646,1.21763 -13.640646,2.48151 0,1.25618 2.902813,4.17183 5.471672,5.47167 1.823891,0.92222 5.009277,1.57471 9.761667,2.01399 3.904667,0.35708 7.167118,0.73726 7.269873,0.84258 0.385329,0.40332 -9.658912,9.24019 -13.435136,11.77309 -7.269873,4.89881 -20.653632,10.42187 -25.200515,10.42187 z m 148.403024,-1.97032 h -2.28628 c -7.09006,0 -28.10332,-11.30811 -35.21907,-18.98131 l -3.03125,-3.1751 6.39647,-0.38019 c 3.49364,-0.20552 7.44968,-0.74755 8.7598,-1.19452 2.62024,-0.85287 7.24418,-5.34837 7.24418,-6.98216 0,-1.3692 -1.25873,-1.61839 -12.17638,-2.34537 -13.89754,-0.93507 -19.26646,-2.41987 -23.83903,-6.63794 -2.36335,-2.165548 -2.49179,-3.786499 -0.56515,-6.175538 1.84958,-2.306836 4.75239,-2.293992 9.0167,0.05138 2.85143,1.587556 4.11017,1.836735 10.24975,2.04995 7.96346,0.272299 12.63879,-0.480376 17.8022,-2.83859 5.857,-2.697302 5.44598,-6.203796 -1.15599,-9.178535 -2.41472,-1.102042 -4.75239,-1.420579 -12.09933,-1.638932 -11.09747,-0.33909 -14.20579,0.482945 -19.24076,5.006707 -4.08449,3.598973 -5.90838,6.32967 -7.91209,11.734551 -2.74868,7.388037 -4.39275,8.384747 -8.785497,5.435707 -5.163407,-3.46026 -6.704723,-8.646786 -3.519336,-12.343375 v 0 c 0.924788,-1.130298 4.623947,-4.45954 8.168973,-7.406022 12.94705,-10.812331 16.33795,-12.186671 31.39147,-12.803197 10.06993,-0.411017 13.38376,-1.060939 13.38376,-2.666476 0,-1.418011 -5.85701,-6.129299 -8.50292,-6.858855 -1.3872,-0.387898 -4.9836,-0.711575 -8.01484,-0.711575 -2.97989,0 -5.60013,-0.272299 -5.85702,-0.598544 -0.64221,-1.078922 9.73598,-9.964607 15.92695,-13.617524 9.83871,-5.808193 21.96374,-9.897817 23.24818,-7.842731 0.33393,0.305696 0,3.997147 -0.53947,8.17925 -1.72114,14.354789 -1.18168,75.557869 0.77066,89.100899 z M 96.178109,86.354787 c -1.82389,0.17982 -3.724846,-1.484801 -7.32125,-5.124876 C 82.126447,74.363349 76.141003,66.461538 73.700586,61.226201 71.928074,57.290709 71.671187,55.929212 70.977596,45.191379 70.386758,35.671186 70.027118,33.248751 69.07664,32.32653 c -1.053233,-1.073783 -1.258743,-1.009562 -3.545027,1.145711 -3.467961,3.223919 -4.752392,6.617382 -5.266162,13.699729 -0.359642,3.362637 -0.74497,6.113886 -1.053233,6.113886 -0.873412,0 -7.449694,-7.141429 -10.532326,-11.459684 -3.750535,-5.281574 -7.68089,-13.024117 -9.787355,-19.227914 -1.952334,-5.767089 -2.055088,-6.902526 -0.590838,-7.449692 v 0 c 0.590838,-0.256887 3.827601,-0.256887 7.14143,0 3.390895,0.231197 11.380049,0.7424 17.802199,1.163693 7.475381,0.485514 19.934351,0.619095 34.653918,0.364778 21.038964,-0.364778 27.872134,-0.739832 37.839304,-2.09362 l 3.54503,-0.477809 v 1.957471 c 0,4.361924 -4.72671,15.783074 -9.55617,23.209647 -2.9028,4.41844 -11.40573,14.020836 -12.51034,14.020836 -0.30826,0 -0.59084,-2.751248 -0.77066,-6.116455 -0.30826,-4.665049 -0.59083,-6.879405 -1.84958,-9.309547 -1.69544,-3.62723 -6.21664,-7.131154 -7.47538,-5.872413 -0.4367,0.423862 -0.97616,5.153133 -1.28443,11.179677 -0.6679,12.05309 -1.28443,15.515913 -3.54502,19.983159 -2.928505,5.638647 -7.706584,7.81704 -9.96718,4.536607 -1.541316,-2.075639 -1.335807,-4.141002 0.642215,-8.276866 3.211074,-6.704724 3.545026,-13.512202 1.233052,-23.489653 -1.181675,-4.770372 -3.005566,-7.768232 -4.829456,-7.765663 -2.080777,0 -5.574426,2.651063 -6.524904,4.955331 -0.513771,1.253604 -1.28443,5.248179 -1.695447,8.885685 -1.721137,15.099758 3.262451,23.887827 16.6719,29.418581 8.7855,3.578422 9.17083,5.186527 3.23676,11.428857 -2.029397,2.188669 -3.442269,3.388326 -4.880831,3.509062 z"
       id="path4-5-3-0-9-4"
       sodipodi:nodetypes="ssssssssscccccsscsscssccccscccsccccccccccccsscccccccccccccccccsccccscccccccsccccscccccccccccssccssscccccccccccccsccsscccccscsccccccccccccccc" />
  </g>
</svg>
