<?xml version="1.0" encoding="UTF-8" standalone="no"?>
<!-- Created with Inkscape (http://www.inkscape.org/) -->

<svg
   width="180"
   height="180"
   viewBox="0 0 180 180"
   version="1.1"
   id="svg1"
   inkscape:export-filename="kaitsja.svg"
   inkscape:export-xdpi="96"
   inkscape:export-ydpi="96"
   sodipodi:docname="defender_square.svg"
   xmlns:inkscape="http://www.inkscape.org/namespaces/inkscape"
   xmlns:sodipodi="http://sodipodi.sourceforge.net/DTD/sodipodi-0.dtd"
   xmlns="http://www.w3.org/2000/svg"
   xmlns:svg="http://www.w3.org/2000/svg">
  <sodipodi:namedview
     id="namedview1"
     pagecolor="#ffffff"
     bordercolor="#000000"
     borderopacity="0.25"
     inkscape:showpageshadow="2"
     inkscape:pageopacity="0.0"
     inkscape:pagecheckerboard="0"
     inkscape:deskcolor="#d1d1d1"
     inkscape:document-units="px" />
  <defs
     id="defs1" />
  <g
     inkscape:label="Kiht 1"
     inkscape:groupmode="layer"
     id="layer1">
    <path
       style="fill:#1e1a16;fill-opacity:1;stroke:none;stroke-width:12.9455"
       d="M 7.5750143,0 C 4.3479896,0.67140192 1.6304966,2.6618692 0,5.3644293 V 174.36428 C 2.0381193,177.73147 5.7067371,180 10.020758,180 H 169.60558 c 4.58579,0 8.4582,-2.57711 10.39442,-6.31389 V 6.0460031 C 178.40346,2.9975701 175.55009,0.72565651 172.05134,0 Z"
       id="path47" />
    <path
       id="path8-0-2-7"
       style="fill:none;fill-opacity:1;stroke:#af7f42;stroke-width:4.11017;stroke-dasharray:none;stroke-opacity:1"
       d="m 17.731646,7.0904053 c -6.65786,0 -12.0249089,5.3000007 -12.0249089,11.8817697 V 161.13294 c 0,6.58176 5.3670489,11.88177 12.0249089,11.88177 H 161.72486 c 6.65786,0 12.02489,-5.30001 12.02489,-11.88177 V 18.972175 c 0,-6.581769 -5.36703,-11.8817697 -12.02489,-11.8817697 z m 59.68296,8.0534257 0.334632,-0.07967 c 0,0 0.0051,2.76867 0.0051,7.105651 v 16.883372 23.91274 0 l -5.333081,0.135637 -5.299115,0.169545 v -17.076653 0 l 0.630988,-17.440608 -1.887828,0.730174 v 0 c -0.339686,0.101736 -0.713343,0.237364 -1.154936,0.444211 -2.377806,1.007101 -6.488015,3.228151 -9.782976,5.25931 -1.290809,0.81382 -2.513683,1.59712 -3.430837,2.261741 -1.188902,0.878247 -2.479714,1.929431 -3.80449,3.092514 v 0 c -1.290811,1.163085 -2.649559,2.434679 -3.940368,3.746962 -1.324779,1.315677 -2.54765,2.675434 -3.736554,4.008063 -1.120965,1.332631 -2.173995,2.644915 -3.057181,3.862255 -1.936214,2.733077 -5.197205,8.473898 -6.691828,11.651187 v 0 c -0.509529,1.054574 -0.815247,1.827703 -0.815247,2.109149 0,0.0339 0,0.101724 0.543498,0.135637 0.373657,0.0339 0.917155,0.06782 1.630497,0.101735 1.49462,0.06782 3.668615,0.135637 6.623891,0.169546 5.842611,0.101724 14.606529,0.135637 26.427628,0.135637 H 99.83393 v 5.405121 5.405119 H 57.542932 c -14.130967,0 -24.695226,-0.0339 -31.76071,-0.135636 -7.031515,-0.101723 -10.49632,-0.237364 -10.49632,-0.410301 0,-0.305183 0.475562,-2.383813 1.086999,-4.62521 1.460653,-5.337308 3.29496,-10.352474 5.536892,-15.038719 0.78128,-1.559822 1.562558,-3.078951 2.377808,-4.567564 1.698433,-2.967051 3.566711,-5.791684 5.570863,-8.453553 1.01906,-1.32924 2.03812,-2.617788 3.159086,-3.869035 v 0 c 2.173995,-2.499105 4.517834,-4.842229 7.031515,-7.019197 2.513683,-2.18375 5.197207,-4.201345 8.016607,-6.049394 4.280052,-2.77038 8.865823,-5.160974 13.82525,-7.154833 1.630497,-0.66801 3.32893,-1.288548 5.061333,-1.861613 1.698434,-0.576456 3.464803,-1.11222 5.265144,-1.600513 1.277148,-0.363875 4.440957,-1.201097 5.197207,-1.342803 z m 33.557234,2.061644 c 1.56256,0.484901 2.65337,0.861318 4.14799,1.369954 1.52859,0.512029 2.88734,0.99693 3.9064,1.397058 2.07208,0.830775 4.11021,1.763276 6.14833,2.790725 0.9851,0.515418 2.00415,1.054574 2.95527,1.617466 v 0 c 1.97019,1.122393 3.9064,2.339733 5.74071,3.635062 0.95112,0.651055 1.86827,1.319067 2.75146,2.010813 0.91715,0.691748 1.80035,1.400448 2.64955,2.129496 0.8832,0.729046 1.73242,1.48183 2.54766,2.251567 0.8832,0.769738 1.69844,1.553041 2.47971,2.356688 5.6388,5.625529 10.36044,12.098788 13.92715,19.107811 1.90225,3.831736 4.24609,10.020157 5.84262,15.211649 0.50954,1.732759 0.95113,3.346835 1.2908,4.733719 l 0.37367,1.488612 H 141.41157 117.15795 V 71.90098 66.49586 h 17.15418 c 4.72164,0 9.03567,-0.0339 12.1608,-0.06782 3.09114,-0.0339 5.02736,-0.101723 5.02736,-0.203454 0,-0.396738 -1.15495,-2.794115 -2.6156,-5.489893 -1.42668,-2.695778 -3.15909,-5.703522 -4.28005,-7.327771 -1.29082,-1.946385 -3.15909,-4.238644 -5.26515,-6.524122 -1.3927,-1.529302 -2.88733,-3.055215 -4.34799,-4.476008 -2.24193,-2.132886 -4.48386,-4.028409 -6.38611,-5.344084 -0.88317,-0.634101 -2.20795,-1.447921 -3.63464,-2.299041 -2.85337,-1.705631 -2.56175,-1.501145 -4.73575,-2.576065 -1.15493,-0.539155 -2.33099,-1.26796 -6.2419,-2.452607 0,0 -0.0961,3.384078 -0.0961,9.674227 v 24.519713 0 l -0.33969,34.71959 -5.33308,0.135636 -5.33308,0.169546 V 57.04199 36.499821 c 0.20399,-7.262364 0.10858,-18.324131 0.15708,-21.536732 8.62723,2.421714 4.97178,1.303296 7.92365,2.242386 z M 66.918285,80.547819 h 5.095301 c 2.07209,0 4.008305,0.101724 4.891489,0.203454 0.373656,0.03391 0.509531,0.101736 0.577469,0.135637 v 1.04101 c 0,1.919259 0,6.368141 0.339685,12.25477 v 0 28.63289 c 0,10.38638 0,20.7592 -0.339685,28.52778 v 9.37928 2.63135 0.93249 c -0.339688,0 -2.819401,-0.6307 -5.570864,-1.39704 -3.057179,-0.84774 -6.012455,-1.82772 -8.831854,-2.94332 -1.426686,-0.55951 -2.819401,-1.15631 -4.178146,-1.77685 -5.536896,-2.4991 -10.598228,-5.5204 -15.183997,-9.01305 -1.188904,-0.87825 -2.30987,-1.77683 -3.396868,-2.70935 -4.381959,-3.73 -8.288356,-7.92796 -11.651255,-12.5396 v 0 c -0.815248,-1.14952 -1.664464,-2.32956 -2.411777,-3.53332 -0.781278,-1.20717 -1.528589,-2.4347 -2.241931,-3.68933 -1.392715,-2.51267 -2.683527,-5.12028 -3.804492,-7.82283 -1.596528,-3.82836 -4.891489,-14.60808 -4.891489,-16.04922 0,-0.27127 1.222871,-0.43064 4.891489,-0.51202 3.634648,-0.0678 9.647104,-0.0678 19.226269,-0.0339 l 24.151726,0.13563 v 5.27287 5.26271 H 46.401207 c -6.012454,0 -10.292507,0.0339 -13.111908,0.13558 -2.106057,0.0679 -2.70957,-0.0695 -4.557626,-0.0454 0.813609,2.5606 2.322784,4.87429 3.164911,6.53892 0.611437,1.197 1.29081,2.36008 1.970182,3.48925 3.32893,5.64588 7.303265,10.47456 12.160787,14.77762 0.951122,0.86468 1.936214,1.70224 3.02321,2.52284 1.019061,0.8206 2.106059,1.62764 3.227025,2.41094 0.917155,0.64767 2.173995,1.43774 3.56671,2.25834 3.306374,1.96813 9.384284,5.486 11.002534,6.22811 0.108043,-17.55979 0.07753,1.19547 0.03728,-9.71058 v -26.17786 0 z M 81.083222,102.1683 h 41.985288 c 23.09868,0 42.08719,0.20345 42.25702,0.42386 v 0.34249 0.56628 c 0,0.4476 0,1.03423 -0.33969,1.72937 -0.9851,4.17422 -3.87242,12.24799 -6.48801,17.75144 -0.50953,1.03424 -1.05302,2.06508 -1.63051,3.07896 -1.66446,3.05182 -3.56671,6.00192 -5.70674,8.82316 -0.71334,0.93929 -1.49461,1.86161 -2.24192,2.77037 v 0 c -0.74731,0.90539 -1.56256,1.80058 -2.34384,2.67543 -1.59654,1.75312 -3.32893,3.4384 -5.0953,5.0457 -0.88319,0.80364 -1.76636,1.58695 -2.71749,2.34989 -3.66861,3.05183 -7.67693,5.76456 -11.8211,8.07038 -1.05303,0.57646 -2.10605,1.12918 -3.19305,1.64799 -2.10606,1.05118 -4.28006,1.99047 -6.48802,2.81445 -0.81525,0.3052 -2.07209,0.71211 -3.43084,1.14614 -1.42668,0.44082 -0.94958,0.52972 -2.41023,0.96036 -2.95528,0.8613 -8.94843,3.20533 -8.95077,1.69749 -0.0159,-10.24494 0.0836,7.38322 0.0836,-23.80698 v -24.07212 l 5.33309,0.16954 5.29911,0.13557 v 16.88678 c 0,9.2911 0.37365,16.88336 0.50953,16.88336 0.33969,0 2.58162,-1.07153 5.33308,-2.38721 3.56672,-1.69884 7.13343,-3.96398 10.59823,-6.62922 1.15493,-0.89183 2.27589,-1.82093 3.36289,-2.79412 1.66446,-1.43776 3.19305,-2.98741 4.72166,-4.57774 2.54763,-2.69918 4.89147,-5.56111 6.86167,-8.52815 0.67936,-0.9698 1.3927,-2.14306 2.10604,-3.37737 v 0 c 1.83432,-3.08233 3.60069,-6.52411 4.14418,-8.03984 v 0 c 0,-0.30519 0.33968,-0.52221 0.33968,-0.65107 0,-0.0339 -0.98507,-0.0679 -2.78542,-0.10173 -1.76637,-0.0339 -4.38195,-0.0679 -7.54105,-0.10172 -6.3861,-0.0339 -15.18399,-0.10172 -24.89903,-0.10172 H 80.777505 v 0 -5.39833 z"
       sodipodi:nodetypes="sssssssssccscccccccccscccsscccssscccscccscsccccssccccccccccsscccccccccccccscsccccccccsccccccscccscsscscccccccccsscccscccccsccscccccccccccsccsccccsscscccccccssccsscccccsssssccsccccsc" />
  </g>
</svg>
