<?xml version="1.0" encoding="UTF-8" standalone="no"?>
<!-- Created with Inkscape (http://www.inkscape.org/) -->

<svg
   width="180"
   height="180"
   viewBox="0 0 180 180"
   version="1.1"
   id="svg1"
   inkscape:export-filename="kuninga_ruut"
   inkscape:export-xdpi="96"
   inkscape:export-ydpi="96"
   sodipodi:docname="tava.svg"
   xmlns:inkscape="http://www.inkscape.org/namespaces/inkscape"
   xmlns:sodipodi="http://sodipodi.sourceforge.net/DTD/sodipodi-0.dtd"
   xmlns="http://www.w3.org/2000/svg"
   xmlns:svg="http://www.w3.org/2000/svg">
  <sodipodi:namedview
     id="namedview1"
     pagecolor="#ffffff"
     bordercolor="#000000"
     borderopacity="0.25"
     inkscape:showpageshadow="2"
     inkscape:pageopacity="0.0"
     inkscape:pagecheckerboard="0"
     inkscape:deskcolor="#d1d1d1"
     inkscape:document-units="px" />
  <defs
     id="defs1" />
  <g
     inkscape:label="Kiht 1"
     inkscape:groupmode="layer"
     id="layer1">
    <path
       style="fill:#1e1a16;fill-opacity:1;stroke:none;stroke-width:12.8742"
       d="M 11.594257,0 C 5.1681148,0 0,5.13605 0,11.514418 V 168.47878 C 0,174.85714 5.1681148,180 11.594257,180 H 169.69777 c 4.5221,0 8.36419,-2.57994 10.30223,-6.3103 V 6.3000851 C 178.06196,2.5697268 174.21987,0 169.69777,0 Z"
       id="path1" />
    <path
       id="path9-4"
       style="fill:#af7f42;fill-opacity:1;stroke-width:2.12357"
       d="m 17.272384,5.9495131 c -6.698149,0 -12.0702685,5.3606879 -12.0702685,12.0147489 V 161.68517 c 0,6.65746 5.3721195,12.01474 12.0702685,12.01474 H 162.0476 c 6.66415,0 12.07027,-5.35728 12.07027,-12.01474 V 17.964262 c 0,-6.654061 -5.40612,-12.0147489 -12.07027,-12.0147489 z M 146.88326,13.638272 c 1.15603,1.075541 2.27805,2.140871 3.40008,3.216412 -0.34001,0.27229 -0.54401,0.575212 -0.85002,0.861114 -1.90405,1.960481 -3.94409,3.835871 -5.74613,5.922284 1.32603,1.569066 2.82206,2.964547 4.31809,4.421293 2.24405,-2.222559 4.4541,-4.445117 6.69815,-6.667676 1.25803,1.201475 2.48206,2.406353 3.74008,3.607828 -2.24405,2.253191 -4.52209,4.506382 -6.76614,6.762977 1.39403,1.358041 2.75405,2.712678 4.11409,4.070719 2.24405,-2.229366 4.4881,-4.451924 6.76614,-6.681289 1.15603,1.160631 2.34606,2.321263 3.50209,3.485298 -3.36608,3.35596 -6.76616,6.715326 -10.09823,10.067883 -2.55006,-2.539094 -5.06611,-5.084996 -7.61617,-7.62409 -1.36003,1.361444 -2.78806,2.654817 -4.01208,4.097949 0.34,0 0.68001,0 1.02002,0 0.34,-0.06808 0.74802,0 1.02002,-0.27229 0.51001,-0.45268 1.36003,-0.343765 1.83605,0.06807 0.88401,0.735181 1.63203,1.59289 2.44805,2.382529 -0.61202,0.272288 -1.25804,0.578613 -1.90405,0.86792 -1.36002,0.636476 -2.82206,1.249126 -4.3521,1.075541 -1.15602,-0.10211 -2.21004,-0.643282 -3.26407,-1.068733 -0.34,0.136144 0,0.306325 0,0.456084 1.42804,1.558853 2.95807,3.029214 4.4541,4.543821 -1.05402,1.082349 -2.10804,2.161293 -3.12806,3.243642 -1.49603,-1.446535 -2.92407,-2.923702 -4.42011,-4.346412 -0.34001,-0.102111 -0.374,-0.452681 -0.51,-0.306325 1.56402,2.178311 2.21004,4.897797 2.31204,7.552614 0,1.334216 0,2.726293 -0.47601,3.975418 -0.408,0.956415 -0.78201,1.970692 -1.49603,2.767137 -0.47601,0.564999 -1.36002,0.684125 -1.97204,0.272288 -0.78202,-0.496926 -1.39403,-1.225299 -2.14205,-1.837949 0.34001,-0.585422 0.71402,-1.174247 1.05402,-1.763071 0.34001,-0.44247 0.51002,-0.946205 0.68001,-1.480572 0.34001,-1.092559 0.34001,-2.259998 0,-3.359364 0,0.840691 -0.34,1.654155 -0.95202,2.174908 -0.612,0.541174 -1.49603,0.731776 -2.17604,0.306325 -0.64601,-0.405031 -1.19003,-0.997258 -1.46203,-1.708614 -6.32414,6.085658 -12.58028,12.246195 -18.80242,18.406732 -5.30412,5.231352 -10.57424,10.44228 -15.742351,15.765529 8.636191,0.06808 17.272381,0.06808 25.942581,0.03403 2.41405,0 4.82811,0 7.20815,-0.170181 0,-0.136144 -0.34001,-0.3778 -0.34001,-0.530963 -0.442,-0.561596 -1.02001,-1.143613 -1.80203,-1.184457 -0.51001,0.136145 -0.98602,-0.272289 -1.12203,-0.769216 -0.34001,-0.799848 -0.34001,-1.654155 0,-2.471022 0,-0.690933 0.71402,-1.279758 1.46204,-1.225301 0.91802,0.06808 1.70003,0.568404 2.51605,0.976837 1.42803,0.776023 2.48206,2.089817 3.12808,3.553371 0.34,0.619457 0.408,1.375059 0.95201,1.865179 v -7.821491 h 4.93011 v 1.657559 c 0,1.984305 0,3.999243 0,5.95632 0,0.347169 0,0.306325 0.34,0.136145 0,-0.388012 0.34002,-0.789639 0.44202,-1.157228 0.88402,-1.967288 2.44806,-3.696323 4.4201,-4.588069 0.68001,-0.272289 1.39403,-0.561595 2.14205,-0.541174 0.64601,0.03403 1.08802,0.663704 1.08802,1.259336 0,0.786234 0,1.609908 -0.37401,2.3553 -0.34001,0.629668 -0.98602,0.861113 -1.59804,0.976836 -0.74801,0.377801 -1.32603,1.065331 -1.76804,1.763071 2.14205,0.102111 4.3521,0 6.49415,-0.06808 v -10.96643 c 4.7601,0.06808 9.5202,0.136144 14.31431,0.204216 v 4.502978 c -3.12806,0.06807 -6.29014,0.136145 -9.4182,0.204217 v 6.082254 c 2.07405,0 4.18209,0.03403 6.32414,0.03403 0.57801,0 1.15603,-0.03403 1.73404,0 0.51001,0.17018 0.68002,0.721565 0.74802,1.198071 0,1.198071 0,2.406353 0,3.607828 h -8.8742 v 6.43623 h 9.41821 c 0,1.565661 0,3.131332 0,4.696992 -4.79411,0.0681 -9.52021,0.13614 -14.28032,0.20421 V 91.778388 c -2.14205,0 -4.3181,-0.06808 -6.46015,0.10211 0.54402,0.718162 1.15603,1.426114 1.93805,1.858372 0.74801,0.306325 1.42803,0.888343 1.53004,1.715421 0,0.663704 0,1.395481 0,2.011534 -0.37401,0.667108 -1.22404,0.779427 -1.87004,0.639879 -1.42804,-0.306325 -2.58406,-1.221897 -3.60409,-2.208944 -1.05403,-1.082349 -2.04004,-2.365509 -2.31205,-3.876713 0,-0.340362 -0.34001,-0.238253 -0.47601,-0.238253 v 8.240146 c -1.56403,-0.102113 -3.12807,-0.238255 -4.69211,-0.340364 0,-1.514607 0,-3.02581 0,-4.537014 0,-1.116385 0,-2.178311 0,-3.291292 -0.64601,0.711355 -0.88401,1.626926 -1.39403,2.402949 -1.12202,1.909426 -3.02606,3.447859 -5.23611,3.760992 -0.61202,0.10211 -1.29203,-0.27229 -1.39403,-0.908765 0,-0.660301 0,-1.344426 0,-2.004727 0,-0.731777 0.74801,-1.252529 1.42803,-1.453342 0.71402,-0.357379 1.25803,-1.021083 1.70003,-1.671173 -0.57801,-0.03403 -1.22402,-0.06808 -1.76804,-0.06808 -3.33206,-0.10211 -6.73214,-0.10211 -10.06422,-0.10211 -7.10615,0 -14.24631,0 -21.352471,0.136144 0.476012,0.507138 0.986022,1.007469 1.462033,1.5078 7.344158,7.450512 14.756328,14.815932 22.168498,22.177942 3.87609,3.80183 7.71817,7.62409 11.62825,11.35445 1.70004,-1.49078 3.26408,-3.15516 4.89612,-4.74464 1.05402,1.01428 2.10804,2.02856 3.16207,3.04283 0.34,0.17018 -0.34002,0.36759 -0.37401,0.55138 -1.46204,1.52823 -3.06007,2.95433 -4.38611,4.60509 0.34001,0.30633 0.51002,0.57181 0.78203,0.83388 1.66603,-1.62692 3.29806,-3.26405 4.9301,-4.89438 1.12203,1.05852 2.24405,2.12044 3.33208,3.17897 0,0.17017 -0.34001,0.36758 -0.44201,0.55138 -1.46204,1.51461 -3.02607,2.93732 -4.3521,4.57786 0.34001,0.30633 0.51002,0.54798 0.78201,0.79985 0.71402,-0.72157 1.42804,-1.44314 2.17606,-2.1613 0.74801,-0.71816 1.49603,-1.5044 2.34605,-2.10683 0.34001,-0.20421 0.74801,-0.10207 1.05403,0.10207 0.95201,0.68752 1.66602,1.63032 2.51605,2.45059 -1.66604,1.63714 -3.26407,3.27428 -4.89611,4.91142 0.61202,0.62626 1.19003,1.28316 1.90404,1.82433 0.34001,-0.27229 0.64601,-0.5684 0.95203,-0.86111 2.75405,-2.52888 5.33812,-5.20753 7.95618,-7.8215 3.77407,3.75078 7.58217,7.49815 11.35624,11.24894 -1.15603,1.18446 -2.31205,2.37231 -3.46808,3.56017 -2.65206,-2.60036 -5.27012,-5.20752 -7.88816,-7.80788 -1.76804,1.78349 -3.53609,3.57039 -5.30413,5.35048 1.59803,1.58948 3.19608,3.2062 4.8621,4.74463 0,-0.59223 0,-1.19466 0,-1.7903 -0.34,-1.47717 -1.36002,-2.64801 -2.17603,-3.89713 1.08802,-1.0347 2.17603,-2.07961 3.26407,-3.11431 0.442,0.65009 0.85002,1.30359 1.29201,1.95708 1.49605,2.08641 2.24407,4.714 1.87006,7.2633 -0.37401,2.9203 -2.24407,5.64319 -4.89612,6.92636 -2.31204,1.1402 -5.06611,1.1402 -7.51416,0.27228 -1.19003,-0.44246 -2.41405,-0.98364 -3.26407,-1.97409 -0.44201,-0.48332 -0.51002,-1.25593 0,-1.80392 0.408,-0.52756 0.85002,-1.0415 1.39403,-1.42611 0.51001,-0.35737 1.22403,-0.17018 1.66603,0.23826 1.32603,1.1368 3.16208,1.61671 4.86211,1.28656 -0.34001,-0.20421 -0.40801,-0.44247 -0.61202,-0.6603 -1.39403,-1.46355 -2.89006,-2.88286 -4.35209,-4.3328 -1.76804,1.77328 -3.57008,3.55337 -5.33812,5.33006 2.58406,2.59355 5.16812,5.1871 7.82017,7.78066 -1.22402,1.16403 -2.38005,2.32807 -3.53607,3.4921 -3.77408,-3.75419 -7.54817,-7.50837 -11.32226,-11.26595 2.95807,-2.94753 5.91614,-5.89847 8.8402,-8.84599 -0.64602,-0.6603 -1.29202,-1.32061 -1.93805,-1.98431 -1.66602,1.66096 -3.33206,3.32193 -5.03211,4.97949 -1.05402,-1.06874 -2.07404,-2.14087 -3.09406,-3.20961 1.63204,-1.65416 3.29807,-3.31171 4.93011,-4.96587 -0.34,-0.27229 -0.57801,-0.565 -0.88403,-0.8475 -1.70003,1.62693 -3.33206,3.25726 -4.9641,4.88418 -1.12203,-1.07894 -2.24405,-2.15107 -3.40007,-3.23002 1.66604,-1.67118 3.33206,-3.34235 4.9981,-5.01352 -0.34,-0.30633 -0.61201,-0.58883 -0.91802,-0.88154 -1.63203,1.62693 -3.29807,3.24705 -4.93011,4.87057 -0.74802,-0.7488 -1.63203,-1.39889 -2.24405,-2.26 -0.34,-0.40844 -0.47601,-1.04491 0,-1.46696 1.25803,-1.53162 2.68606,-2.93391 4.0461,-4.38044 -11.76427,-11.7288 -23.56253,-23.45765 -35.32679,-35.183095 v 43.593455 h 31.24669 v 16.61984 h 3.19607 v 4.53021 h -2.44805 c -0.34001,0 -0.54401,-0.034 -0.74802,0.034 1.08802,0.034 2.14205,0 3.19607,0 v 4.5302 h -11.66225 v -4.5302 c 0.98601,0 1.93804,0 2.92406,0 0.34001,0 0.47601,0 0.61202,-0.034 -1.15604,-0.034 -2.34605,0 -3.53608,0 v -4.53021 h 3.46807 c 0,-4.0537 0,-8.11081 0,-12.1611 -1.76804,0 -3.50208,-0.068 -5.23611,-0.10207 v 1.0415 c 1.08802,-0.068 2.14204,-0.17018 3.19607,-0.23825 v 5.06117 c -0.91802,-0.068 -1.87004,-0.10207 -2.75406,-0.17018 -0.34001,0 -0.54402,-0.13615 -0.44201,0.17018 1.12202,0 2.21005,0 3.29807,0 0,0.79645 0,1.59289 -0.34,2.38934 0,0.64669 0,1.42611 -0.81603,1.73584 -0.71401,0.30632 -1.53003,0.13614 -2.31205,0.13614 v 4.5234 h -4.7941 c 0,-1.45674 0,-2.91349 -0.34001,-4.36683 -0.64602,0 -1.25803,0 -1.87004,-0.068 -0.64602,-0.034 -1.25803,-0.51395 -1.36003,-1.16404 0,-1.04831 -0.34001,-2.11024 -0.34001,-3.16536 0.95202,0 1.93804,0 2.92406,0 0.34001,0 0.57802,0 0.78202,-0.034 -1.25803,-0.034 -2.48205,0 -3.70608,0 0,-1.55204 0.34001,-3.1041 0.34001,-4.65614 1.12202,-0.068 2.21005,-0.13615 3.33207,-0.23826 0,-0.27229 0,-0.51054 0,-0.76921 H 92.482054 v 3.60102 h 11.730256 v 17.25971 h -4.896105 v -12.37893 h -6.834151 v 3.25045 h 3.230072 v 4.88758 H 93.23007 c -0.340008,0 -0.544012,-0.034 -0.748016,0.034 1.054023,0.034 2.108047,0 3.230072,0 v 4.56084 c -3.876087,-0.068 -7.68417,-0.13615 -11.492255,-0.23826 v -4.54382 c 0.884018,0.068 1.768039,0.10207 2.652058,0.17019 0.340008,0 0.544012,0.068 0.714016,0 -1.122025,-0.13615 -2.244051,-0.17019 -3.366074,-0.23826 v -4.4281 c 1.122023,-0.068 2.244049,-0.13615 3.366074,-0.20421 v -3.26066 h -6.834153 v 12.72951 h -5.270116 c 0,-5.80997 0,-11.61653 0.340006,-17.4265 3.978091,-0.068 7.956179,-0.13614 11.900266,-0.20421 v -3.58061 c -5.338119,-0.10207 -10.710237,-0.23824 -16.048357,0 v 0.98365 c 0.986023,0 1.972043,-0.034 2.958066,-0.034 0,0.82027 0,1.64053 0.340008,2.4608 0,0.68414 0,1.51121 -0.40801,2.00133 -0.646013,0.43906 -1.462031,0.20422 -2.176048,0.23825 0,0.034 -0.510012,-0.10207 -0.544012,0.068 1.054024,0.034 2.142047,0 3.196072,0 v 4.7174 c -1.054025,-0.13614 -2.142048,-0.27229 -3.196072,-0.39142 v 4.44852 h -4.930108 v -4.50978 c -1.088025,0.034 -2.176048,0.068 -3.264073,0.10207 0,-1.46015 -0.340008,-2.9203 -0.37401,-4.38045 1.122027,0 2.244051,0 3.366076,0 0.340007,0.068 0.340007,-0.10207 0.340007,-0.35058 -1.122025,0.034 -2.244048,0.10207 -3.366075,0.17018 v -4.57786 h 3.366075 v -1.09936 c -1.768038,0.068 -3.570079,0.10207 -5.372119,0.17018 v 11.71182 h 3.196071 v 1.60652 c 0,0.7624 0,1.59969 -0.340008,2.28382 -0.442009,0.64668 -1.326029,0.65009 -2.006044,0.70454 0.714015,0 1.530033,0 2.278052,0 v 4.71401 H 53.449186 v -4.71401 c 1.054024,0 2.142049,0.034 3.230072,-0.034 -1.088023,-0.034 -2.176048,0 -3.230072,0 v -4.53702 h 3.366076 c 0,-5.42195 0,-10.8405 0,-16.26245 h 31.212694 v -43.5935 c -0.442011,0.425452 -0.850021,0.854307 -1.292031,1.283162 -9.146202,9.101258 -18.292405,18.171888 -27.370606,27.300368 -4.182094,4.19325 -8.330186,8.36268 -12.376275,12.64102 0.578013,0 1.156025,0 1.768038,-0.034 0.510012,0 0.986023,-0.17018 1.496033,-0.23826 0.816019,-0.068 1.462033,0.565 1.904043,1.21169 0.340007,0.45949 0.646015,1.1266 0.340007,1.68138 -0.374008,0.54799 -0.986021,0.83729 -1.530033,1.15723 -1.530034,0.70455 -3.230073,0.78624 -4.862108,0.52416 -0.986023,-0.13615 -1.870042,-0.54458 -2.720061,-1.0347 -0.374008,0.27229 -0.578014,0.57521 -0.850018,0.86112 1.428031,1.39207 2.856064,2.78075 4.250093,4.17282 -0.748016,0.74199 -1.394029,1.62353 -2.27805,2.21576 -0.408008,0.30632 -1.020023,0.40163 -1.462033,0.068 -1.394031,-0.9428 -2.482054,-2.19192 -3.706081,-3.33894 -0.340008,0.20422 -0.340008,0.38461 -0.510012,0.57181 2.516056,2.5391 5.100114,5.07138 7.61617,7.60707 -4.182093,4.13539 -8.330185,8.27078 -12.478278,12.40617 -1.190027,-1.14021 -2.380052,-2.27702 -3.570079,-3.41383 2.992066,-3.00198 6.018135,-6.00737 9.010201,-9.01276 -1.360031,-1.35804 -2.754062,-2.71948 -4.114093,-4.07752 -0.578012,0.59223 -1.190027,1.18786 -1.768038,1.78349 0.680013,0.71816 1.360029,1.44313 2.040044,2.16129 -1.122025,1.14362 -2.27805,2.28723 -3.434075,3.43084 -0.612014,-0.58202 -1.224027,-1.17424 -1.836042,-1.75626 -0.374008,-0.17018 -0.374008,-0.42205 -0.544012,-0.13615 0.680015,0.66371 1.29203,1.32741 1.938042,1.98771 -1.156025,1.13 -2.31205,2.26 -3.434075,3.39 -1.632037,-1.62692 -3.298072,-3.23003 -4.896108,-4.87057 -0.782017,-0.82708 -1.632037,-1.61331 -2.27805,-2.5391 -0.340008,-0.36758 0,-0.83048 0,-1.17084 0.680015,-1.03469 1.632035,-1.85497 2.482054,-2.77394 0.680015,0.6637 1.360031,1.33082 2.040044,1.99452 0,0.20422 0.37401,0.3812 0.544014,0.068 -0.714016,-0.67732 -1.428031,-1.35805 -2.142048,-2.03877 1.156025,-1.18786 2.312051,-2.37912 3.468078,-3.56698 0.714016,0.70795 1.462031,1.4193 2.176048,2.12725 0.646013,-0.60584 1.224026,-1.21168 1.836041,-1.81752 -1.530035,-1.46696 -2.992067,-2.93391 -4.4881,-4.40087 -2.958066,3.00879 -5.950133,6.02099 -8.908199,9.03318 -0.680014,-0.63988 -1.394029,-1.25593 -2.006044,-1.91283 -0.44201,-0.48331 -1.020023,-1.04831 -0.850019,-1.74945 0,-0.40163 0.510011,-0.69094 0.782019,-1.01769 3.672081,-3.81545 7.412162,-7.51176 11.084245,-11.25914 2.618058,2.60717 5.270116,5.21093 7.888175,7.82149 0.340008,-0.20421 0.374008,-0.3778 0.544012,-0.56499 -1.530033,-1.53503 -3.026067,-3.07006 -4.556102,-4.60508 1.020023,-1.04151 2.074046,-2.08301 3.128069,-3.12452 1.530035,1.52141 3.06007,3.04623 4.590103,4.56424 0.340007,-0.23825 0.544011,-0.51734 0.782017,-0.77262 -0.408008,-0.78624 -0.850018,-1.58608 -1.020023,-2.47102 -0.340006,-1.71882 -0.340006,-3.56359 0.408009,-5.19051 0.442012,-0.88153 1.054024,-1.65416 1.564037,-2.48803 0.340006,0.20421 0.442008,0.41183 0.646013,0.61944 0.612014,0.63649 1.36003,1.17766 1.870041,1.90944 0.544012,0.7556 0,1.64735 -0.340006,2.34849 -0.340008,0.6569 0,1.4125 0,2.06599 7.68417,-7.6309 15.368341,-15.2686 22.984509,-22.90291 6.154137,-6.12649 12.308273,-12.239381 18.394409,-18.437358 -4.794106,-0.102111 -9.520212,-0.136144 -14.246318,-0.136144 -13.396297,-0.03403 -26.826594,0 -40.222893,0 v 19.094362 h -14.48432 v -4.8876 h 9.588214 v -4.65614 h -9.588214 v -4.887583 h 9.588214 V 91.84646 h -9.588214 v -4.88078 h 9.588214 v -4.662948 h -9.690216 c 0,-1.569065 0.340007,-3.141533 0.340007,-4.714002 h 9.350209 c 0,-1.494185 0,-2.984967 0,-4.482557 h -9.588214 v -4.884182 h 14.48432 v 18.736882 c 4.692104,0 9.350208,0 14.042313,0.03403 13.362297,0.03403 26.690593,0.136144 40.052889,0 0.44201,0.06808 0,-0.170181 0,-0.343765 C 75.549678,78.551953 67.457497,70.512622 59.399319,62.466484 53.857196,56.979862 48.383074,51.462607 42.806949,46.030444 41.310917,44.600926 39.848885,43.123759 38.25085,41.816772 c -0.340007,0.646686 -0.340007,1.330813 0,1.984306 0.340007,0.238253 0.51001,0.558192 0.578012,0.929186 0.340008,1.021083 -0.47601,1.974095 -1.292029,2.539094 -0.510011,0.415241 -1.326029,0.422048 -1.802039,-0.06807 -0.714017,-0.711354 -1.088024,-1.67798 -1.258028,-2.644606 -0.340008,-1.735842 -0.340008,-3.5806 0.47601,-5.217736 -0.340007,0.204216 -0.510012,0.466294 -0.714016,0.653493 -2.618058,2.491444 -5.202116,5.088399 -7.752172,7.627494 -3.672081,-3.798432 -7.344163,-7.593459 -11.050245,-11.388486 -0.408009,-0.360782 -0.340007,-0.993853 0,-1.402287 0.578014,-0.881536 1.394031,-1.586083 2.142047,-2.382528 2.992066,2.967949 5.950133,5.932494 8.942198,8.900444 0,0.340362 0.37401,-0.136144 0.544012,-0.238253 1.700039,-1.718824 3.502079,-3.389996 5.168116,-5.159875 0,-0.136144 0.408009,-0.306325 0.340007,-0.45268 -0.816017,0.704547 -1.530033,1.504396 -2.312052,2.236173 -0.578011,0.469698 -1.054023,1.02789 -1.666036,1.358041 -0.340008,0.17018 -0.680016,0.03403 -0.952021,-0.136144 -0.91802,-0.636476 -1.564035,-1.538433 -2.346051,-2.31786 1.326027,-1.364849 2.652058,-2.695661 3.944087,-4.091141 0.340006,-0.136145 0,-0.27229 0,-0.370994 -0.884021,0.170181 -1.700038,0.561596 -2.584058,0.721565 -1.700037,0.391416 -3.536079,0.204217 -5.066113,-0.592228 -1.870041,-0.867921 -3.298072,-2.576534 -3.706082,-4.577858 -0.612013,-2.573129 0.374008,-5.326652 2.210049,-7.188427 1.394031,-1.419306 3.196071,-2.481233 5.202117,-2.753522 1.700037,-0.238253 3.502076,-0.170181 5.168114,0.479909 2.040045,0.871325 3.468077,2.865841 3.774083,5.040749 0.340008,1.637138 0,3.308311 -0.850019,4.77867 0,0.204218 -0.340008,0.439066 0,0.605843 0.47601,-0.391414 0.884021,-0.840691 1.32603,-1.27295 0.782018,-0.765813 1.530034,-1.586083 2.448055,-2.212348 0.340007,-0.17018 0.544011,-0.204216 0.816017,-0.06807 0.714016,0.343765 1.224027,0.987048 1.666038,1.606505 0.340008,0.401627 0.47601,0.966625 0,1.402288 -0.884021,1.184457 -1.972044,2.181715 -2.992067,3.236835 0,0.17018 -0.578012,0.357379 -0.340008,0.517349 0.374008,-0.27229 0.748016,-0.639879 1.054024,-0.929186 1.564034,-1.528222 3.162069,-3.117709 4.726104,-4.68337 -3.026066,-3.022407 -6.052134,-6.051621 -9.078201,-9.074029 1.020023,-0.956414 2.040046,-1.909426 3.060069,-2.865841 3.978087,3.978822 8.024178,7.954241 12.002265,11.933062 -0.884018,0.901957 -1.802039,1.803915 -2.72006,2.705872 -1.768039,1.817528 -3.638081,3.563581 -5.372118,5.459393 0.51001,-0.238253 1.020022,-0.425451 1.530033,-0.558192 1.734039,-0.456085 3.570079,-0.238253 5.168114,0.476506 0.680015,0.306325 1.530035,0.65009 1.734039,1.453341 0,0.755602 -0.408008,1.381867 -0.986022,1.7903 -0.612013,0.513946 -1.496033,0.782831 -2.24405,0.370994 -0.782017,-0.272289 -1.632036,-0.238253 -2.482056,-0.170181 0.340008,0.204217 0.340008,0.388012 0.544014,0.585421 0.340007,0.306325 0.578011,0.643283 0.884019,0.98024 3.774085,3.989034 7.65017,7.848729 11.492255,11.732249 10.812241,10.79966 21.658482,21.555073 32.470721,32.334311 V 45.890895 h -7.61617 c 0,-0.340361 0,-0.653493 0,-0.976836 0,-0.830482 -0.374007,-1.725631 0,-2.52548 0.340008,-0.765812 1.292029,-0.929186 2.074047,-0.973433 1.904044,-0.102111 3.808085,-0.03403 5.712127,-0.06807 v -0.776024 h -7.820174 v -4.53361 H 88.26596 V 34.91085 h -7.820174 v -4.179635 h 7.820174 v -1.844758 c -4.488099,-0.06807 -9.010201,-0.102111 -13.532301,-0.170181 0,-4.748038 0,-9.492672 0,-14.244114 h 4.89611 v 9.264631 c 2.75406,0 5.47412,0 8.228181,-0.03403 0.340008,0.03403 0.510012,0 0.44201,-0.343764 0,-0.541174 0,-1.153825 0,-1.657559 0,-2.406353 0,-4.809303 0,-7.215656 h 4.89611 v 9.210173 c 2.924064,0.03403 5.848129,0.06807 8.73819,0.06807 0,-3.093883 0,-6.19117 0,-9.288457 1.70004,0 3.40008,0 5.10012,0 0,4.812708 0,9.62201 -0.34001,14.431313 h -13.4303 v 1.831143 h 7.82018 v 4.179635 h -7.82018 v 1.123192 h 7.82018 v 4.537015 h -7.82018 v 0.776023 c 1.360031,0 2.754062,0 4.114092,0 1.020022,0.03403 2.108047,0 3.128068,0.17018 0.40801,0.102111 0.61202,0.476506 0.68002,0.854308 0,1.167438 0,2.32807 -0.34001,3.485297 h -7.65017 v 37.579273 c 7.10616,-7.076108 14.21232,-14.152217 21.35247,-21.228325 4.5561,-4.584665 9.21421,-9.142101 13.70231,-13.784627 -0.64601,0.03403 -1.32604,-0.238253 -1.80204,-0.707952 -0.61201,-0.49012 -0.95202,-1.341023 -0.68002,-2.106835 0.34,-1.010873 1.22403,-1.797107 2.27805,-1.688192 -0.57801,-0.136144 -1.19002,-0.238253 -1.80204,-0.136144 -1.12202,0.204217 -2.27804,0.554789 -3.16207,1.320602 -0.47601,0.411837 -1.22402,0.422047 -1.70003,0 -0.74802,-0.575211 -1.49603,-1.245722 -1.70005,-2.161294 0,-0.643283 0.34001,-1.208282 0.81602,-1.55545 1.29203,-0.867922 2.78807,-1.341024 4.2841,-1.654156 1.80204,-0.40503 3.67208,-0.102111 5.44012,0.364186 1.46204,0.411837 2.95807,0.888343 4.21609,1.810722 0.34001,0.272289 0.44202,0.136144 0,-0.102111 -1.56403,-1.643944 -3.19606,-3.206202 -4.7601,-4.812707 1.12202,-1.078944 2.24405,-2.164697 3.40008,-3.243641 0.74802,0.82027 1.56403,1.637137 2.34605,2.457407 0.85002,0.8475 1.59803,1.783493 2.55005,2.501655 0,-0.306325 0,-0.626265 0,-0.922379 -0.57801,-1.579276 -0.78201,-3.338942 -0.34,-4.979483 0.34,-1.26274 1.19002,-2.256595 1.83603,-3.338944 0.71402,0.680723 1.46204,1.30018 2.10805,2.025149 0.44202,0.510542 0.44202,1.255933 0,1.831143 -0.37401,0.622861 -0.47601,1.358041 -0.408,2.065993 1.46202,-1.249126 2.78806,-2.678642 4.14808,-4.029876 -1.83603,-1.810722 -3.67207,-3.607829 -5.54211,-5.398129 -0.68003,-0.687529 -1.42804,-1.531624 -1.32604,-2.57313 0.34001,-1.082348 1.02002,-1.865179 1.73404,-2.617377 2.27806,-2.188522 4.52211,-4.380448 6.80015,-6.582585 0.34001,-0.204217 0.37401,-0.381205 0.61202,-0.571807 z M 26.11258,21.708235 c 0,0 -0.408009,0 -0.476011,0.03403 0.952021,1.11298 2.006045,2.123854 3.026068,3.110901 0,0.102111 0.374007,0.405029 0.510011,0.432259 0.374008,-1.09256 0,-2.484637 -0.850019,-3.185781 -0.680015,-0.353975 -1.462033,-0.364186 -2.210049,-0.394819 z m -4.624103,3.410419 c 0,0.388011 0,0.779427 0,1.17765 0,0.405029 0,0.82027 0.340007,1.15042 0.37401,0.568403 0.85002,1.106174 1.462033,1.415902 0.646015,0.170181 1.326031,0 1.972043,-0.06807 -1.054022,-1.232107 -2.210049,-2.426775 -3.366074,-3.55337 v 0 c 0,-0.03403 0,-0.06807 0,-0.136144 z M 127.94484,44.093788 c 0.91802,0.370994 1.46203,1.402289 1.36003,2.368914 0.40801,-0.449276 0.81602,-0.898553 1.15602,-1.392077 -0.71401,-0.40503 -1.49603,-0.670512 -2.31204,-0.908764 0,0 0,-0.03403 -0.34001,-0.06807 z m 6.66415,5.149665 c -0.37401,0.272289 -0.64602,0.578614 -0.98603,0.874728 0.85003,0.102111 1.53004,0.694336 1.80205,1.446535 -0.34001,-0.701144 -0.40802,-1.392077 -0.68002,-2.059185 0,-0.102111 0,-0.170181 0,-0.272289 z" />
  </g>
</svg>
