<?xml version="1.0" encoding="UTF-8" standalone="no"?>
<!-- Created with Inkscape (http://www.inkscape.org/) -->

<svg
   width="178.06073"
   height="178.06155"
   viewBox="0 0 178.06073 178.06155"
   version="1.1"
   id="svg1"
   inkscape:export-filename="kuninga_ruut"
   inkscape:export-xdpi="96"
   inkscape:export-ydpi="96"
   sodipodi:docname="roheline_joon.svg"
   inkscape:version="1.3.2 (091e20e, 2023-11-25, custom)"
   xmlns:inkscape="http://www.inkscape.org/namespaces/inkscape"
   xmlns:sodipodi="http://sodipodi.sourceforge.net/DTD/sodipodi-0.dtd"
   xmlns="http://www.w3.org/2000/svg"
   xmlns:svg="http://www.w3.org/2000/svg">
  <sodipodi:namedview
     id="namedview1"
     pagecolor="#ffffff"
     bordercolor="#000000"
     borderopacity="0.25"
     inkscape:showpageshadow="2"
     inkscape:pageopacity="0.0"
     inkscape:pagecheckerboard="0"
     inkscape:deskcolor="#d1d1d1"
     inkscape:document-units="px"
     inkscape:zoom="3.8791209"
     inkscape:cx="91"
     inkscape:cy="91.386686"
     inkscape:window-width="1920"
     inkscape:window-height="991"
     inkscape:window-x="-9"
     inkscape:window-y="-9"
     inkscape:window-maximized="1"
     inkscape:current-layer="layer1" />
  <defs
     id="defs1" />
  <g
     inkscape:label="Kiht 1"
     inkscape:groupmode="layer"
     id="layer1"
     transform="translate(-0.96187901,-0.98285031)">
    <path
       id="path1"
       style="fill:none;fill-opacity:1;stroke:#01990f;stroke-width:6;stroke-dasharray:none;stroke-opacity:1"
       d="M 101.14648,4.0039062 C 71.251453,4.0203545 41.356339,3.9910928 11.46136,4.037157 7.1845277,3.8759284 3.5001258,8.1130236 4.015625,12.3125 c -0.032348,52.309894 -0.00748,104.61979 0.00977,156.92969 0.3405474,4.05591 4.4303276,7.24893 8.439453,6.74414 52.645182,0.01 105.290372,0.0262 157.935542,-0.0137 2.24438,-0.22761 4.47743,-1.50175 5.48006,-3.5603 0.25162,-2.1524 0.0559,-4.32735 0.11945,-6.4897 -0.002,-53.01003 -0.004,-106.020056 -0.006,-159.0300819 -1.79816,-1.5644039 -3.97935,-3.005067 -6.46328,-2.904274 -22.79479,0.0052 -45.58958,0.010401 -68.38438,0.015602 z" />
  </g>
</svg>
